GoogleSansCode-LightProportional.ufo
<glyph name="exclam" format="2">
  <advance width="1200"/>
  <unicode hex="0021"/>
  <outline>
    <contour>
      <point x="527" y="509" type="line"/>
      <point x="673" y="509" type="line"/>
      <point x="697" y="1492" type="line"/>
      <point x="503" y="1492" type="line"/>
    </contour>
    <contour>
      <point x="600" y="-30" type="curve" smooth="yes"/>
      <point x="684" y="-30"/>
      <point x="750" y="37"/>
      <point x="750" y="120" type="curve" smooth="yes"/>
      <point x="750" y="203"/>
      <point x="684" y="270"/>
      <point x="600" y="270" type="curve" smooth="yes"/>
      <point x="516" y="270"/>
      <point x="450" y="203"/>
      <point x="450" y="120" type="curve" smooth="yes"/>
      <point x="450" y="37"/>
      <point x="516" y="-30"/>
    </contour>
  </outline>
</glyph>
<glyph name="numbersign" format="2">
  <advance width="1200"/>
  <unicode hex="0023"/>
  <outline>
    <contour>
      <point x="631" y="-17" type="line"/>
      <point x="759" y="-17" type="line"/>
      <point x="970" y="1449" type="line"/>
      <point x="842" y="1449" type="line"/>
    </contour>
    <contour>
      <point x="230" y="-17" type="line"/>
      <point x="358" y="-17" type="line"/>
      <point x="569" y="1449" type="line"/>
      <point x="441" y="1449" type="line"/>
    </contour>
    <contour>
      <point x="50" y="375" type="line"/>
      <point x="1073" y="375" type="line"/>
      <point x="1073" y="499" type="line"/>
      <point x="50" y="499" type="line"/>
    </contour>
    <contour>
      <point x="123" y="933" type="line"/>
      <point x="1150" y="933" type="line"/>
      <point x="1150" y="1057" type="line"/>
      <point x="123" y="1057" type="line"/>
    </contour>
  </outline>
</glyph>
<glyph name="dollar" format="2">
  <advance width="1200"/>
  <unicode hex="0024"/>
  <outline>
    <contour>
      <point x="617" y="0" type="curve" smooth="yes"/>
      <point x="878" y="0"/>
      <point x="1045" y="138"/>
      <point x="1045" y="368" type="curve" smooth="yes"/>
      <point x="1045" y="384" type="line" smooth="yes"/>
      <point x="1045" y="568"/>
      <point x="956" y="690"/>
      <point x="737" y="776" type="curve" smooth="yes"/>
      <point x="532" y="856" type="line" smooth="yes"/>
      <point x="386" y="913"/>
      <point x="332" y="976"/>
      <point x="332" y="1089" type="curve" smooth="yes"/>
      <point x="332" y="1100" type="line" smooth="yes"/>
      <point x="332" y="1235"/>
      <point x="432" y="1313"/>
      <point x="611" y="1313" type="curve" smooth="yes"/>
      <point x="758" y="1313"/>
      <point x="847" y="1250"/>
      <point x="907" y="1104" type="curve"/>
      <point x="1026" y="1162" type="line"/>
      <point x="957" y="1342"/>
      <point x="816" y="1432"/>
      <point x="602" y="1432" type="curve" smooth="yes"/>
      <point x="358" y="1432"/>
      <point x="196" y="1300"/>
      <point x="196" y="1098" type="curve" smooth="yes"/>
      <point x="196" y="1080" type="line" smooth="yes"/>
      <point x="196" y="922"/>
      <point x="294" y="808"/>
      <point x="478" y="736" type="curve" smooth="yes"/>
      <point x="682" y="656" type="line" smooth="yes"/>
      <point x="846" y="592"/>
      <point x="903" y="515"/>
      <point x="903" y="379" type="curve" smooth="yes"/>
      <point x="903" y="367" type="line" smooth="yes"/>
      <point x="903" y="211"/>
      <point x="797" y="119"/>
      <point x="616" y="119" type="curve" smooth="yes"/>
      <point x="428" y="119"/>
      <point x="319" y="211"/>
      <point x="272" y="399" type="curve"/>
      <point x="145" y="357" type="line"/>
      <point x="202" y="132"/>
      <point x="370" y="0"/>
    </contour>
    <contour>
      <point x="555" y="-226" type="line"/>
      <point x="665" y="-226" type="line"/>
      <point x="665" y="46" type="line"/>
      <point x="661" y="83" type="line"/>
      <point x="661" y="921" type="line"/>
      <point x="559" y="921" type="line"/>
      <point x="559" y="83" type="line"/>
      <point x="555" y="46" type="line"/>
    </contour>
    <contour>
      <point x="559" y="598" type="line"/>
      <point x="661" y="598" type="line"/>
      <point x="661" y="1354" type="line"/>
      <point x="665" y="1386" type="line"/>
      <point x="665" y="1658" type="line"/>
      <point x="555" y="1658" type="line"/>
      <point x="555" y="1386" type="line"/>
      <point x="559" y="1354" type="line"/>
    </contour>
  </outline>
</glyph>
<glyph name="asterisk" format="2">
  <advance width="1200"/>
  <unicode hex="002A"/>
  <outline>
    <contour>
      <point x="151" y="437" type="line"/>
      <point x="629" y="724" type="line"/>
      <point x="1114" y="996" type="line"/>
      <point x="1049" y="1111" type="line"/>
      <point x="571" y="819" type="line"/>
      <point x="86" y="552" type="line"/>
    </contour>
    <contour>
      <point x="1049" y="437" type="line"/>
      <point x="1114" y="552" type="line"/>
      <point x="629" y="819" type="line"/>
      <point x="151" y="1111" type="line"/>
      <point x="86" y="996" type="line"/>
      <point x="571" y="724" type="line"/>
    </contour>
    <contour>
      <point x="534" y="219" type="line"/>
      <point x="666" y="219" type="line"/>
      <point x="666" y="1329" type="line"/>
      <point x="534" y="1329" type="line"/>
    </contour>
  </outline>
</glyph>
<glyph name="period" format="2">
  <advance width="1200"/>
  <unicode hex="002E"/>
  <outline>
    <contour>
      <point x="599" y="-30" type="curve" smooth="yes"/>
      <point x="685" y="-30"/>
      <point x="750" y="35"/>
      <point x="750" y="120" type="curve" smooth="yes"/>
      <point x="750" y="202"/>
      <point x="685" y="268"/>
      <point x="599" y="268" type="curve" smooth="yes"/>
      <point x="517" y="268"/>
      <point x="450" y="202"/>
      <point x="450" y="120" type="curve" smooth="yes"/>
      <point x="450" y="35"/>
      <point x="515" y="-30"/>
    </contour>
  </outline>
</glyph>
<glyph name="three" format="2">
  <advance width="1200"/>
  <unicode hex="0033"/>
  <outline>
    <contour>
      <point x="615" y="-30" type="curve" smooth="yes"/>
      <point x="868" y="-30"/>
      <point x="1052" y="140"/>
      <point x="1052" y="372" type="curve" smooth="yes"/>
      <point x="1052" y="393" type="line" smooth="yes"/>
      <point x="1052" y="571"/>
      <point x="945" y="708"/>
      <point x="776" y="745" type="curve"/>
      <point x="776" y="751" type="line"/>
      <point x="931" y="800"/>
      <point x="1011" y="910"/>
      <point x="1011" y="1073" type="curve" smooth="yes"/>
      <point x="1011" y="1083" type="line" smooth="yes"/>
      <point x="1011" y="1308"/>
      <point x="850" y="1462"/>
      <point x="613" y="1462" type="curve" smooth="yes"/>
      <point x="398" y="1462"/>
      <point x="231" y="1345"/>
      <point x="158" y="1143" type="curve"/>
      <point x="294" y="1098" type="line"/>
      <point x="347" y="1244"/>
      <point x="459" y="1324"/>
      <point x="613" y="1324" type="curve" smooth="yes"/>
      <point x="767" y="1324"/>
      <point x="865" y="1232"/>
      <point x="865" y="1088" type="curve" smooth="yes"/>
      <point x="865" y="1068" type="line" smooth="yes"/>
      <point x="865" y="908"/>
      <point x="749" y="810"/>
      <point x="562" y="810" type="curve" smooth="yes"/>
      <point x="448" y="810" type="line"/>
      <point x="448" y="670" type="line"/>
      <point x="578" y="670" type="line" smooth="yes"/>
      <point x="785" y="670"/>
      <point x="906" y="569"/>
      <point x="906" y="397" type="curve" smooth="yes"/>
      <point x="906" y="369" type="line" smooth="yes"/>
      <point x="906" y="213"/>
      <point x="787" y="108"/>
      <point x="611" y="108" type="curve" smooth="yes"/>
      <point x="437" y="108"/>
      <point x="308" y="204"/>
      <point x="264" y="368" type="curve"/>
      <point x="126" y="330" type="line"/>
      <point x="184" y="107"/>
      <point x="369" y="-30"/>
    </contour>
  </outline>
</glyph>
<glyph name="five" format="2">
  <advance width="1200"/>
  <unicode hex="0035"/>
  <outline>
    <contour>
      <point x="604" y="-30" type="curve" smooth="yes"/>
      <point x="886" y="-30"/>
      <point x="1068" y="152"/>
      <point x="1068" y="434" type="curve" smooth="yes"/>
      <point x="1068" y="457" type="line" smooth="yes"/>
      <point x="1068" y="722"/>
      <point x="899" y="905"/>
      <point x="650" y="905" type="curve" smooth="yes"/>
      <point x="522" y="905"/>
      <point x="407" y="857"/>
      <point x="325" y="773" type="curve"/>
      <point x="321" y="774" type="line"/>
      <point x="395" y="1288" type="line"/>
      <point x="993" y="1288" type="line"/>
      <point x="993" y="1432" type="line"/>
      <point x="271" y="1432" type="line"/>
      <point x="169" y="669" type="line"/>
      <point x="339" y="617" type="line"/>
      <point x="419" y="710"/>
      <point x="513" y="757"/>
      <point x="632" y="757" type="curve" smooth="yes"/>
      <point x="810" y="757"/>
      <point x="922" y="644"/>
      <point x="922" y="463" type="curve" smooth="yes"/>
      <point x="922" y="430" type="line" smooth="yes"/>
      <point x="922" y="235"/>
      <point x="798" y="108"/>
      <point x="602" y="108" type="curve" smooth="yes"/>
      <point x="430" y="108"/>
      <point x="313" y="201"/>
      <point x="264" y="375" type="curve"/>
      <point x="126" y="337" type="line"/>
      <point x="193" y="106"/>
      <point x="369" y="-30"/>
    </contour>
  </outline>
</glyph>
<glyph name="seven" format="2">
  <advance width="1200"/>
  <unicode hex="0037"/>
  <outline>
    <contour>
      <point x="402" y="-31" type="line"/>
      <point x="1054" y="1301" type="line"/>
      <point x="1054" y="1432" type="line"/>
      <point x="146" y="1432" type="line"/>
      <point x="146" y="1288" type="line"/>
      <point x="883" y="1288" type="line"/>
      <point x="883" y="1284" type="line"/>
      <point x="266" y="32" type="line"/>
    </contour>
  </outline>
</glyph>
<glyph name="greater" format="2">
  <advance width="1200"/>
  <unicode hex="003E"/>
  <outline>
    <contour>
      <point x="170" y="80" type="line"/>
      <point x="1050" y="553" type="line"/>
      <point x="1050" y="700" type="line"/>
      <point x="170" y="1173" type="line"/>
      <point x="170" y="1006" type="line"/>
      <point x="884" y="630" type="line"/>
      <point x="884" y="622" type="line"/>
      <point x="170" y="247" type="line"/>
    </contour>
  </outline>
</glyph>
<glyph name="question" format="2">
  <advance width="1200"/>
  <unicode hex="003F"/>
  <outline>
    <contour>
      <point x="507" y="468" type="line"/>
      <point x="653" y="468" type="line"/>
      <point x="653" y="648" type="line"/>
      <point x="802" y="741" type="line" smooth="yes"/>
      <point x="975" y="849"/>
      <point x="1044" y="953"/>
      <point x="1044" y="1105" type="curve" smooth="yes"/>
      <point x="1044" y="1109" type="line" smooth="yes"/>
      <point x="1044" y="1314"/>
      <point x="894" y="1462"/>
      <point x="647" y="1462" type="curve" smooth="yes"/>
      <point x="402" y="1462"/>
      <point x="217" y="1334"/>
      <point x="142" y="1113" type="curve"/>
      <point x="283" y="1062" type="line"/>
      <point x="341" y="1233"/>
      <point x="467" y="1324"/>
      <point x="646" y="1324" type="curve" smooth="yes"/>
      <point x="803" y="1324"/>
      <point x="896" y="1248"/>
      <point x="896" y="1120" type="curve" smooth="yes"/>
      <point x="896" y="1105" type="line" smooth="yes"/>
      <point x="896" y="1012"/>
      <point x="838" y="929"/>
      <point x="723" y="856" type="curve" smooth="yes"/>
      <point x="507" y="720" type="line"/>
    </contour>
    <contour>
      <point x="580" y="-30" type="curve" smooth="yes"/>
      <point x="667" y="-30"/>
      <point x="733" y="34"/>
      <point x="733" y="120" type="curve" smooth="yes"/>
      <point x="733" y="205"/>
      <point x="667" y="270"/>
      <point x="580" y="270" type="curve" smooth="yes"/>
      <point x="493" y="270"/>
      <point x="427" y="206"/>
      <point x="427" y="120" type="curve" smooth="yes"/>
      <point x="427" y="34"/>
      <point x="493" y="-30"/>
    </contour>
  </outline>
</glyph>
<glyph name="A" format="2">
  <advance width="1200"/>
  <unicode hex="0041"/>
  <anchor x="600" y="20" name="bottom"/>
  <anchor x="1129" y="0" name="ogonek"/>
  <anchor x="602" y="1432" name="top"/>
  <outline>
    <contour>
      <point x="72" y="0" type="line"/>
      <point x="227" y="0" type="line"/>
      <point x="557" y="1122" type="line"/>
      <point x="597" y="1260" type="line"/>
      <point x="603" y="1260" type="line"/>
      <point x="640" y="1122" type="line"/>
      <point x="973" y="0" type="line"/>
      <point x="1129" y="0" type="line"/>
      <point x="686" y="1432" type="line"/>
      <point x="517" y="1432" type="line"/>
    </contour>
    <contour>
      <point x="265" y="400" type="line"/>
      <point x="937" y="400" type="line"/>
      <point x="893" y="542" type="line"/>
      <point x="309" y="542" type="line"/>
    </contour>
  </outline>
</glyph>
<glyph name="B" format="2">
  <advance width="1200"/>
  <unicode hex="0042"/>
  <outline>
    <contour>
      <point x="184" y="0" type="line"/>
      <point x="644" y="0" type="line" smooth="yes"/>
      <point x="889" y="0"/>
      <point x="1056" y="152"/>
      <point x="1056" y="380" type="curve" smooth="yes"/>
      <point x="1056" y="410" type="line" smooth="yes"/>
      <point x="1056" y="585"/>
      <point x="956" y="714"/>
      <point x="796" y="746" type="curve"/>
      <point x="796" y="752" type="line"/>
      <point x="926" y="800"/>
      <point x="999" y="911"/>
      <point x="999" y="1060" type="curve" smooth="yes"/>
      <point x="999" y="1090" type="line" smooth="yes"/>
      <point x="999" y="1299"/>
      <point x="848" y="1432"/>
      <point x="605" y="1432" type="curve" smooth="yes"/>
      <point x="184" y="1432" type="line"/>
    </contour>
    <contour>
      <point x="328" y="136" type="line"/>
      <point x="328" y="1296" type="line"/>
      <point x="603" y="1296" type="line" smooth="yes"/>
      <point x="765" y="1296"/>
      <point x="851" y="1216"/>
      <point x="851" y="1066" type="curve" smooth="yes"/>
      <point x="851" y="1044" type="line" smooth="yes"/>
      <point x="851" y="895"/>
      <point x="763" y="814"/>
      <point x="603" y="814" type="curve" smooth="yes"/>
      <point x="270" y="814" type="line"/>
      <point x="270" y="678" type="line"/>
      <point x="622" y="678" type="line" smooth="yes"/>
      <point x="810" y="678"/>
      <point x="908" y="586"/>
      <point x="908" y="420" type="curve" smooth="yes"/>
      <point x="908" y="394" type="line" smooth="yes"/>
      <point x="908" y="230"/>
      <point x="808" y="136"/>
      <point x="634" y="136" type="curve" smooth="yes"/>
    </contour>
  </outline>
</glyph>
<glyph name="C" format="2">
  <advance width="1200"/>
  <unicode hex="0043"/>
  <anchor x="654" y="0" name="bottom"/>
  <anchor x="645" y="1432" name="top"/>
  <outline>
    <contour>
      <point x="651" y="-30" type="curve" smooth="yes"/>
      <point x="878" y="-30"/>
      <point x="1037" y="84"/>
      <point x="1116" y="305" type="curve"/>
      <point x="979" y="362" type="line"/>
      <point x="921" y="192"/>
      <point x="815" y="110"/>
      <point x="656" y="110" type="curve" smooth="yes"/>
      <point x="401" y="110"/>
      <point x="256" y="321"/>
      <point x="256" y="693" type="curve" smooth="yes"/>
      <point x="256" y="739" type="line" smooth="yes"/>
      <point x="256" y="1113"/>
      <point x="395" y="1322"/>
      <point x="643" y="1322" type="curve" smooth="yes"/>
      <point x="799" y="1322"/>
      <point x="895" y="1244"/>
      <point x="961" y="1066" type="curve"/>
      <point x="1096" y="1126" type="line"/>
      <point x="1016" y="1345"/>
      <point x="859" y="1462"/>
      <point x="647" y="1462" type="curve" smooth="yes"/>
      <point x="310" y="1462"/>
      <point x="108" y="1190"/>
      <point x="108" y="734" type="curve" smooth="yes"/>
      <point x="108" y="698" type="line" smooth="yes"/>
      <point x="108" y="248"/>
      <point x="316" y="-30"/>
    </contour>
  </outline>
</glyph>
<glyph name="D" format="2">
  <advance width="1200"/>
  <unicode hex="0044"/>
  <anchor x="566" y="1432" name="top"/>
  <outline>
    <contour>
      <point x="148" y="0" type="line"/>
      <point x="513" y="0" type="line" smooth="yes"/>
      <point x="877" y="0"/>
      <point x="1088" y="257"/>
      <point x="1088" y="698" type="curve" smooth="yes"/>
      <point x="1088" y="734" type="line" smooth="yes"/>
      <point x="1088" y="1175"/>
      <point x="877" y="1432"/>
      <point x="513" y="1432" type="curve" smooth="yes"/>
      <point x="148" y="1432" type="line"/>
    </contour>
    <contour>
      <point x="292" y="138" type="line"/>
      <point x="292" y="1294" type="line"/>
      <point x="506" y="1294" type="line" smooth="yes"/>
      <point x="792" y="1294"/>
      <point x="940" y="1104"/>
      <point x="940" y="739" type="curve" smooth="yes"/>
      <point x="940" y="693" type="line" smooth="yes"/>
      <point x="940" y="328"/>
      <point x="791" y="138"/>
      <point x="506" y="138" type="curve" smooth="yes"/>
    </contour>
  </outline>
</glyph>
<glyph name="G" format="2">
  <advance width="1200"/>
  <unicode hex="0047"/>
  <anchor x="646" y="0" name="bottom"/>
  <anchor x="651" y="1432" name="top"/>
  <outline>
    <contour>
      <point x="645" y="-30" type="curve" smooth="yes"/>
      <point x="949" y="-30"/>
      <point x="1130" y="191"/>
      <point x="1130" y="564" type="curve" smooth="yes"/>
      <point x="1130" y="767" type="line"/>
      <point x="636" y="767" type="line"/>
      <point x="636" y="618" type="line"/>
      <point x="985" y="618" type="line"/>
      <point x="985" y="562" type="line" smooth="yes"/>
      <point x="985" y="265"/>
      <point x="868" y="110"/>
      <point x="646" y="110" type="curve" smooth="yes"/>
      <point x="386" y="110"/>
      <point x="241" y="316"/>
      <point x="241" y="686" type="curve" smooth="yes"/>
      <point x="241" y="729" type="line" smooth="yes"/>
      <point x="241" y="1106"/>
      <point x="390" y="1322"/>
      <point x="651" y="1322" type="curve" smooth="yes"/>
      <point x="800" y="1322"/>
      <point x="904" y="1249"/>
      <point x="962" y="1106" type="curve"/>
      <point x="1095" y="1171" type="line"/>
      <point x="1014" y="1361"/>
      <point x="861" y="1462"/>
      <point x="648" y="1462" type="curve" smooth="yes"/>
      <point x="298" y="1462"/>
      <point x="94" y="1191"/>
      <point x="94" y="724" type="curve" smooth="yes"/>
      <point x="94" y="691" type="line" smooth="yes"/>
      <point x="94" y="237"/>
      <point x="299" y="-30"/>
    </contour>
  </outline>
</glyph>
<glyph name="H" format="2">
  <advance width="1200"/>
  <unicode hex="0048"/>
  <outline>
    <contour>
      <point x="881" y="0" type="line"/>
      <point x="1027" y="0" type="line"/>
      <point x="1027" y="1432" type="line"/>
      <point x="881" y="1432" type="line"/>
    </contour>
    <contour>
      <point x="173" y="0" type="line"/>
      <point x="319" y="0" type="line"/>
      <point x="319" y="1432" type="line"/>
      <point x="173" y="1432" type="line"/>
    </contour>
    <contour>
      <point x="249" y="666" type="line"/>
      <point x="950" y="666" type="line"/>
      <point x="950" y="802" type="line"/>
      <point x="249" y="802" type="line"/>
    </contour>
  </outline>
</glyph>
<glyph name="J" format="2">
  <advance width="1200"/>
  <unicode hex="004A"/>
  <anchor x="921" y="1432" name="top"/>
  <outline>
    <contour>
      <point x="589" y="-30" type="curve" smooth="yes"/>
      <point x="853" y="-30"/>
      <point x="1004" y="140"/>
      <point x="1004" y="437" type="curve" smooth="yes"/>
      <point x="1004" y="1432" type="line"/>
      <point x="858" y="1432" type="line"/>
      <point x="858" y="441" type="line" smooth="yes"/>
      <point x="858" y="220"/>
      <point x="768" y="110"/>
      <point x="588" y="110" type="curve" smooth="yes"/>
      <point x="441" y="110"/>
      <point x="344" y="195"/>
      <point x="298" y="361" type="curve"/>
      <point x="160" y="307" type="line"/>
      <point x="221" y="94"/>
      <point x="380" y="-30"/>
    </contour>
  </outline>
</glyph>
<glyph name="M" format="2">
  <advance width="1200"/>
  <unicode hex="004D"/>
  <outline>
    <contour>
      <point x="98" y="0" type="line"/>
      <point x="236" y="0" type="line"/>
      <point x="236" y="844" type="line"/>
      <point x="222" y="1177" type="line"/>
      <point x="226" y="1177" type="line"/>
      <point x="548" y="466" type="line"/>
      <point x="652" y="466" type="line"/>
      <point x="974" y="1177" type="line"/>
      <point x="978" y="1177" type="line"/>
      <point x="964" y="844" type="line"/>
      <point x="964" y="0" type="line"/>
      <point x="1102" y="0" type="line"/>
      <point x="1102" y="1432" type="line"/>
      <point x="962" y="1432" type="line"/>
      <point x="685" y="844" type="line"/>
      <point x="602" y="644" type="line"/>
      <point x="598" y="644" type="line"/>
      <point x="515" y="844" type="line"/>
      <point x="238" y="1432" type="line"/>
      <point x="98" y="1432" type="line"/>
    </contour>
  </outline>
</glyph>
<glyph name="N" format="2">
  <advance width="1200"/>
  <unicode hex="004E"/>
  <anchor x="625" y="0" name="bottom"/>
  <anchor x="602" y="1432" name="top"/>
  <outline>
    <contour>
      <point x="120" y="0" type="line"/>
      <point x="268" y="0" type="line"/>
      <point x="268" y="870" type="line"/>
      <point x="249" y="1202" type="line"/>
      <point x="253" y="1202" type="line"/>
      <point x="956" y="0" type="line"/>
      <point x="1080" y="0" type="line"/>
      <point x="1080" y="1432" type="line"/>
      <point x="932" y="1432" type="line"/>
      <point x="932" y="608" type="line"/>
      <point x="951" y="276" type="line"/>
      <point x="947" y="276" type="line"/>
      <point x="272" y="1432" type="line"/>
      <point x="120" y="1432" type="line"/>
    </contour>
  </outline>
</glyph>
<glyph name="T" format="2">
  <advance width="1200"/>
  <unicode hex="0054"/>
  <anchor x="600" y="0" name="bottom"/>
  <anchor x="600" y="1432" name="top"/>
  <outline>
    <contour>
      <point x="527" y="0" type="line"/>
      <point x="673" y="0" type="line"/>
      <point x="673" y="1372" type="line"/>
      <point x="527" y="1372" type="line"/>
    </contour>
    <contour>
      <point x="118" y="1294" type="line"/>
      <point x="1082" y="1294" type="line"/>
      <point x="1082" y="1432" type="line"/>
      <point x="118" y="1432" type="line"/>
    </contour>
  </outline>
</glyph>
<glyph name="U" format="2">
  <advance width="1200"/>
  <unicode hex="0055"/>
  <anchor x="600" y="-30" name="bottom"/>
  <anchor x="829" y="0" name="ogonek"/>
  <anchor x="600" y="1432" name="top"/>
  <outline>
    <contour>
      <point x="600" y="-30" type="curve" smooth="yes"/>
      <point x="863" y="-30"/>
      <point x="1044" y="162"/>
      <point x="1044" y="441" type="curve" smooth="yes"/>
      <point x="1044" y="1432" type="line"/>
      <point x="898" y="1432" type="line"/>
      <point x="898" y="451" type="line" smooth="yes"/>
      <point x="898" y="241"/>
      <point x="784" y="110"/>
      <point x="600" y="110" type="curve" smooth="yes"/>
      <point x="416" y="110"/>
      <point x="302" y="241"/>
      <point x="302" y="451" type="curve" smooth="yes"/>
      <point x="302" y="1432" type="line"/>
      <point x="156" y="1432" type="line"/>
      <point x="156" y="441" type="line" smooth="yes"/>
      <point x="156" y="162"/>
      <point x="337" y="-30"/>
    </contour>
  </outline>
</glyph>
<glyph name="V" format="2">
  <advance width="1200"/>
  <unicode hex="0056"/>
  <outline>
    <contour>
      <point x="520" y="0" type="line"/>
      <point x="680" y="0" type="line"/>
      <point x="1126" y="1432" type="line"/>
      <point x="971" y="1432" type="line"/>
      <point x="638" y="324" type="line"/>
      <point x="605" y="174" type="line"/>
      <point x="599" y="174" type="line"/>
      <point x="566" y="324" type="line"/>
      <point x="230" y="1432" type="line"/>
      <point x="74" y="1432" type="line"/>
    </contour>
  </outline>
</glyph>
<glyph name="W" format="2">
  <advance width="1200"/>
  <unicode hex="0057"/>
  <anchor x="600" y="1432" name="top"/>
  <outline>
    <contour>
      <point x="230" y="0" type="line"/>
      <point x="368" y="0" type="line"/>
      <point x="558" y="733" type="line"/>
      <point x="597" y="923" type="line"/>
      <point x="603" y="923" type="line"/>
      <point x="642" y="733" type="line"/>
      <point x="833" y="0" type="line"/>
      <point x="971" y="0" type="line"/>
      <point x="1166" y="1432" type="line"/>
      <point x="1018" y="1432" type="line"/>
      <point x="878" y="252" type="line"/>
      <point x="872" y="252" type="line"/>
      <point x="817" y="547" type="line"/>
      <point x="666" y="1150" type="line"/>
      <point x="534" y="1150" type="line"/>
      <point x="383" y="547" type="line"/>
      <point x="328" y="252" type="line"/>
      <point x="322" y="252" type="line"/>
      <point x="182" y="1432" type="line"/>
      <point x="34" y="1432" type="line"/>
    </contour>
  </outline>
</glyph>
<glyph name="c" format="2">
  <advance width="1200"/>
  <unicode hex="0063"/>
  <anchor x="679" y="0" name="bottom"/>
  <anchor x="662" y="1045" name="top"/>
  <outline>
    <contour>
      <point x="680" y="-30" type="curve" smooth="yes"/>
      <point x="842" y="-30"/>
      <point x="973" y="41"/>
      <point x="1076" y="187" type="curve"/>
      <point x="972" y="281" type="line"/>
      <point x="892" y="161"/>
      <point x="799" y="108"/>
      <point x="677" y="108" type="curve" smooth="yes"/>
      <point x="466" y="108"/>
      <point x="330" y="262"/>
      <point x="330" y="499" type="curve" smooth="yes"/>
      <point x="330" y="545" type="line" smooth="yes"/>
      <point x="330" y="788"/>
      <point x="458" y="937"/>
      <point x="662" y="937" type="curve" smooth="yes"/>
      <point x="786" y="937"/>
      <point x="875" y="877"/>
      <point x="937" y="765" type="curve"/>
      <point x="1048" y="853" type="line"/>
      <point x="955" y="998"/>
      <point x="839" y="1075"/>
      <point x="661" y="1075" type="curve" smooth="yes"/>
      <point x="377" y="1075"/>
      <point x="184" y="858"/>
      <point x="184" y="538" type="curve" smooth="yes"/>
      <point x="184" y="508" type="line" smooth="yes"/>
      <point x="184" y="187"/>
      <point x="383" y="-30"/>
    </contour>
  </outline>
</glyph>
<glyph name="f" format="2">
  <advance width="1200"/>
  <unicode hex="0066"/>
  <outline>
    <contour>
      <point x="408" y="0" type="line"/>
      <point x="547" y="0" type="line"/>
      <point x="547" y="954" type="line"/>
      <point x="546" y="980" type="line"/>
      <point x="546" y="1124" type="line" smooth="yes"/>
      <point x="546" y="1285"/>
      <point x="613" y="1361"/>
      <point x="760" y="1361" type="curve" smooth="yes"/>
      <point x="861" y="1361"/>
      <point x="940" y="1334"/>
      <point x="1025" y="1268" type="curve"/>
      <point x="1104" y="1374" type="line"/>
      <point x="996" y="1457"/>
      <point x="896" y="1491"/>
      <point x="761" y="1491" type="curve" smooth="yes"/>
      <point x="542" y="1491"/>
      <point x="408" y="1356"/>
      <point x="408" y="1133" type="curve" smooth="yes"/>
    </contour>
    <contour>
      <point x="145" y="876" type="line"/>
      <point x="1054" y="876" type="line"/>
      <point x="1054" y="1008" type="line"/>
      <point x="145" y="1008" type="line"/>
    </contour>
  </outline>
</glyph>
<glyph name="g" format="2">
  <advance width="1200"/>
  <unicode hex="0067"/>
  <anchor x="603" y="1045" name="top"/>
  <outline>
    <contour>
      <point x="591" y="-572" type="curve" smooth="yes"/>
      <point x="907" y="-572"/>
      <point x="1109" y="-423"/>
      <point x="1109" y="-189" type="curve" smooth="yes"/>
      <point x="1109" y="1"/>
      <point x="978" y="114"/>
      <point x="757" y="114" type="curve" smooth="yes"/>
      <point x="487" y="114" type="line"/>
      <point x="572" y="327" type="line"/>
      <point x="477" y="350" type="line"/>
      <point x="279" y="32" type="line"/>
      <point x="279" y="-13" type="line"/>
      <point x="757" y="-13" type="line" smooth="yes"/>
      <point x="899" y="-13"/>
      <point x="969" y="-68"/>
      <point x="969" y="-183" type="curve" smooth="yes"/>
      <point x="969" y="-337"/>
      <point x="822" y="-435"/>
      <point x="590" y="-435" type="curve" smooth="yes"/>
      <point x="350" y="-435"/>
      <point x="230" y="-361"/>
      <point x="230" y="-211" type="curve" smooth="yes"/>
      <point x="230" y="-112"/>
      <point x="283" y="-29"/>
      <point x="376" y="12" type="curve"/>
      <point x="332" y="88" type="line"/>
      <point x="185" y="31"/>
      <point x="101" y="-82"/>
      <point x="101" y="-227" type="curve" smooth="yes"/>
      <point x="101" y="-442"/>
      <point x="286" y="-572"/>
    </contour>
    <contour>
      <point x="598" y="291" type="curve" smooth="yes"/>
      <point x="834" y="291"/>
      <point x="1006" y="454"/>
      <point x="1006" y="678" type="curve" smooth="yes"/>
      <point x="1006" y="690" type="line" smooth="yes"/>
      <point x="1006" y="907"/>
      <point x="830" y="1077"/>
      <point x="604" y="1077" type="curve" smooth="yes"/>
      <point x="367" y="1077"/>
      <point x="196" y="914"/>
      <point x="196" y="690" type="curve" smooth="yes"/>
      <point x="196" y="678" type="line" smooth="yes"/>
      <point x="196" y="460"/>
      <point x="372" y="291"/>
    </contour>
    <contour>
      <point x="601" y="411" type="curve" smooth="yes"/>
      <point x="449" y="411"/>
      <point x="336" y="521"/>
      <point x="336" y="670" type="curve" smooth="yes"/>
      <point x="336" y="689" type="line" smooth="yes"/>
      <point x="336" y="838"/>
      <point x="449" y="947"/>
      <point x="601" y="947" type="curve" smooth="yes"/>
      <point x="754" y="947"/>
      <point x="866" y="838"/>
      <point x="866" y="689" type="curve" smooth="yes"/>
      <point x="866" y="670" type="line" smooth="yes"/>
      <point x="866" y="521"/>
      <point x="754" y="411"/>
    </contour>
    <contour>
      <point x="831" y="969" type="line"/>
      <point x="888" y="1051"/>
      <point x="966" y="1089"/>
      <point x="1080" y="1089" type="curve"/>
      <point x="1080" y="1272" type="line"/>
      <point x="927" y="1272"/>
      <point x="817" y="1174"/>
      <point x="770" y="998" type="curve"/>
    </contour>
  </outline>
</glyph>
<glyph name="l" format="2">
  <advance width="1200"/>
  <unicode hex="006C"/>
  <anchor x="771" y="-30" name="bottom"/>
  <anchor x="514" y="1460" name="top"/>
  <outline>
    <contour>
      <point x="779" y="-30" type="curve" smooth="yes"/>
      <point x="893" y="-30"/>
      <point x="995" y="10"/>
      <point x="1078" y="88" type="curve"/>
      <point x="992" y="199" type="line"/>
      <point x="920" y="133"/>
      <point x="859" y="106"/>
      <point x="783" y="106" type="curve" smooth="yes"/>
      <point x="651" y="106"/>
      <point x="584" y="182"/>
      <point x="584" y="333" type="curve" smooth="yes"/>
      <point x="584" y="1460" type="line"/>
      <point x="444" y="1460" type="line"/>
      <point x="444" y="315" type="line" smooth="yes"/>
      <point x="444" y="101"/>
      <point x="572" y="-30"/>
    </contour>
    <contour>
      <point x="130" y="1328" type="line"/>
      <point x="496" y="1328" type="line"/>
      <point x="496" y="1460" type="line"/>
      <point x="130" y="1460" type="line"/>
    </contour>
  </outline>
</glyph>
<glyph name="r" format="2">
  <advance width="1200"/>
  <unicode hex="0072"/>
  <anchor x="660" y="1045" name="top"/>
  <outline>
    <contour>
      <point x="396" y="80" type="line"/>
      <point x="533" y="80" type="line"/>
      <point x="533" y="546" type="line" smooth="yes"/>
      <point x="533" y="784"/>
      <point x="634" y="932"/>
      <point x="796" y="932" type="curve" smooth="yes"/>
      <point x="884" y="932"/>
      <point x="946" y="900"/>
      <point x="1008" y="823" type="curve"/>
      <point x="1122" y="944" type="line"/>
      <point x="1053" y="1034"/>
      <point x="975" y="1075"/>
      <point x="866" y="1075" type="curve" smooth="yes"/>
      <point x="719" y="1075"/>
      <point x="597" y="986"/>
      <point x="532" y="834" type="curve"/>
      <point x="525" y="834" type="line"/>
      <point x="525" y="1045" type="line"/>
      <point x="396" y="1045" type="line"/>
    </contour>
    <contour>
      <point x="132" y="0" type="line"/>
      <point x="873" y="0" type="line"/>
      <point x="873" y="121" type="line"/>
      <point x="132" y="121" type="line"/>
    </contour>
    <contour>
      <point x="152" y="924" type="line"/>
      <point x="464" y="924" type="line"/>
      <point x="464" y="1045" type="line"/>
      <point x="152" y="1045" type="line"/>
    </contour>
  </outline>
</glyph>
<glyph name="s" format="2">
  <advance width="1200"/>
  <unicode hex="0073"/>
  <anchor x="642" y="0" name="bottom"/>
  <anchor x="623" y="1045" name="top"/>
  <outline>
    <contour>
      <point x="658" y="-30" type="curve" smooth="yes"/>
      <point x="878" y="-30"/>
      <point x="1025" y="91"/>
      <point x="1025" y="272" type="curve" smooth="yes"/>
      <point x="1025" y="276" type="line" smooth="yes"/>
      <point x="1025" y="438"/>
      <point x="932" y="534"/>
      <point x="724" y="586" type="curve" smooth="yes"/>
      <point x="581" y="622" type="line" smooth="yes"/>
      <point x="453" y="654"/>
      <point x="399" y="701"/>
      <point x="399" y="780" type="curve" smooth="yes"/>
      <point x="399" y="788" type="line" smooth="yes"/>
      <point x="399" y="884"/>
      <point x="481" y="939"/>
      <point x="622" y="939" type="curve" smooth="yes"/>
      <point x="756" y="939"/>
      <point x="849" y="891"/>
      <point x="900" y="797" type="curve"/>
      <point x="1021" y="866" type="line"/>
      <point x="942" y="1008"/>
      <point x="815" y="1075"/>
      <point x="624" y="1075" type="curve" smooth="yes"/>
      <point x="394" y="1075"/>
      <point x="251" y="960"/>
      <point x="251" y="777" type="curve" smooth="yes"/>
      <point x="251" y="775" type="line" smooth="yes"/>
      <point x="251" y="626"/>
      <point x="349" y="528"/>
      <point x="524" y="484" type="curve" smooth="yes"/>
      <point x="667" y="448" type="line" smooth="yes"/>
      <point x="818" y="410"/>
      <point x="877" y="361"/>
      <point x="877" y="272" type="curve" smooth="yes"/>
      <point x="877" y="260" type="line" smooth="yes"/>
      <point x="877" y="166"/>
      <point x="791" y="106"/>
      <point x="654" y="106" type="curve" smooth="yes"/>
      <point x="492" y="106"/>
      <point x="362" y="181"/>
      <point x="296" y="313" type="curve"/>
      <point x="175" y="244" type="line"/>
      <point x="269" y="64"/>
      <point x="435" y="-30"/>
    </contour>
  </outline>
</glyph>
<glyph name="t" format="2">
  <advance width="1200"/>
  <unicode hex="0074"/>
  <anchor x="698" y="-30" name="bottom"/>
  <outline>
    <contour>
      <point x="767" y="-30" type="curve" smooth="yes"/>
      <point x="885" y="-30"/>
      <point x="988" y="15"/>
      <point x="1074" y="104" type="curve"/>
      <point x="986" y="209" type="line"/>
      <point x="919" y="140"/>
      <point x="850" y="106"/>
      <point x="767" y="106" type="curve" smooth="yes"/>
      <point x="627" y="106"/>
      <point x="562" y="181"/>
      <point x="562" y="344" type="curve" smooth="yes"/>
      <point x="562" y="1326" type="line"/>
      <point x="419" y="1326" type="line"/>
      <point x="419" y="332" type="line" smooth="yes"/>
      <point x="419" y="104"/>
      <point x="548" y="-30"/>
    </contour>
    <contour>
      <point x="122" y="913" type="line"/>
      <point x="1008" y="913" type="line"/>
      <point x="1008" y="1045" type="line"/>
      <point x="122" y="1045" type="line"/>
    </contour>
  </outline>
</glyph>
<glyph name="v" format="2">
  <advance width="1200"/>
  <unicode hex="0076"/>
  <outline>
    <contour>
      <point x="526" y="0" type="line"/>
      <point x="674" y="0" type="line"/>
      <point x="1074" y="1045" type="line"/>
      <point x="921" y="1045" type="line"/>
      <point x="677" y="384" type="line"/>
      <point x="606" y="162" type="line"/>
      <point x="600" y="162" type="line"/>
      <point x="527" y="384" type="line"/>
      <point x="281" y="1045" type="line"/>
      <point x="126" y="1045" type="line"/>
    </contour>
  </outline>
</glyph>
<glyph name="y" format="2">
  <advance width="1200"/>
  <unicode hex="0079"/>
  <anchor x="910" y="0" name="bottom"/>
  <anchor x="611" y="1045" name="top"/>
  <outline>
    <contour>
      <point x="316" y="-440" type="curve" smooth="yes"/>
      <point x="459" y="-440"/>
      <point x="547" y="-369"/>
      <point x="610" y="-204" type="curve" smooth="yes"/>
      <point x="1084" y="1045" type="line"/>
      <point x="931" y="1045" type="line"/>
      <point x="689" y="384" type="line"/>
      <point x="597" y="96" type="line"/>
      <point x="579" y="96" type="line"/>
      <point x="486" y="-162" type="line" smooth="yes"/>
      <point x="449" y="-264"/>
      <point x="398" y="-306"/>
      <point x="310" y="-306" type="curve" smooth="yes"/>
      <point x="255" y="-306"/>
      <point x="206" y="-286"/>
      <point x="152" y="-241" type="curve"/>
      <point x="77" y="-354" type="line"/>
      <point x="146" y="-412"/>
      <point x="223" y="-440"/>
    </contour>
    <contour>
      <point x="577" y="-98" type="line"/>
      <point x="623" y="162" type="line"/>
      <point x="612" y="162" type="line"/>
      <point x="539" y="384" type="line"/>
      <point x="291" y="1045" type="line"/>
      <point x="136" y="1045" type="line"/>
    </contour>
  </outline>
</glyph>
<glyph name="z" format="2">
  <advance width="1200"/>
  <unicode hex="007A"/>
  <anchor x="606" y="1045" name="top"/>
  <outline>
    <contour>
      <point x="196" y="0" type="line"/>
      <point x="1004" y="0" type="line"/>
      <point x="1004" y="136" type="line"/>
      <point x="373" y="136" type="line"/>
      <point x="992" y="925" type="line"/>
      <point x="992" y="1045" type="line"/>
      <point x="220" y="1045" type="line"/>
      <point x="220" y="909" type="line"/>
      <point x="815" y="909" type="line"/>
      <point x="196" y="121" type="line"/>
    </contour>
  </outline>
</glyph>
<glyph name="bar" format="2">
  <advance width="1200"/>
  <unicode hex="007C"/>
  <outline>
    <contour>
      <point x="524" y="-346" type="line"/>
      <point x="676" y="-346" type="line"/>
      <point x="676" y="1778" type="line"/>
      <point x="524" y="1778" type="line"/>
    </contour>
  </outline>
</glyph>
<glyph name="cent" format="2">
  <advance width="1200"/>
  <unicode hex="00A2"/>
  <outline>
    <contour>
      <point x="648" y="0" type="curve" smooth="yes"/>
      <point x="812" y="0"/>
      <point x="945" y="71"/>
      <point x="1050" y="217" type="curve"/>
      <point x="946" y="309" type="line"/>
      <point x="864" y="189"/>
      <point x="769" y="136"/>
      <point x="645" y="136" type="curve" smooth="yes"/>
      <point x="435" y="136"/>
      <point x="302" y="277"/>
      <point x="302" y="523" type="curve" smooth="yes"/>
      <point x="302" y="581" type="line" smooth="yes"/>
      <point x="302" y="827"/>
      <point x="431" y="969"/>
      <point x="636" y="969" type="curve" smooth="yes"/>
      <point x="767" y="969"/>
      <point x="858" y="913"/>
      <point x="928" y="791" type="curve"/>
      <point x="1042" y="871" type="line"/>
      <point x="938" y="1033"/>
      <point x="813" y="1105"/>
      <point x="635" y="1105" type="curve" smooth="yes"/>
      <point x="355" y="1105"/>
      <point x="158" y="888"/>
      <point x="158" y="574" type="curve" smooth="yes"/>
      <point x="158" y="532" type="line" smooth="yes"/>
      <point x="158" y="218"/>
      <point x="355" y="0"/>
    </contour>
    <contour>
      <point x="569" y="-226" type="line"/>
      <point x="679" y="-226" type="line"/>
      <point x="679" y="56" type="line"/>
      <point x="679" y="93" type="line"/>
      <point x="679" y="561" type="line"/>
      <point x="569" y="561" type="line"/>
      <point x="569" y="93" type="line"/>
      <point x="569" y="56" type="line"/>
    </contour>
    <contour>
      <point x="569" y="543" type="line"/>
      <point x="679" y="543" type="line"/>
      <point x="679" y="1012" type="line"/>
      <point x="679" y="1049" type="line"/>
      <point x="679" y="1331" type="line"/>
      <point x="569" y="1331" type="line"/>
      <point x="569" y="1049" type="line"/>
      <point x="569" y="1012" type="line"/>
    </contour>
  </outline>
</glyph>
<glyph name="currency" format="2">
  <advance width="1200"/>
  <unicode hex="00A4"/>
  <outline>
    <contour>
      <point x="600" y="266" type="curve" smooth="yes"/>
      <point x="840" y="266"/>
      <point x="1029" y="452"/>
      <point x="1029" y="688" type="curve" smooth="yes"/>
      <point x="1029" y="718" type="line" smooth="yes"/>
      <point x="1029" y="954"/>
      <point x="840" y="1140"/>
      <point x="600" y="1140" type="curve" smooth="yes"/>
      <point x="360" y="1140"/>
      <point x="171" y="954"/>
      <point x="171" y="718" type="curve" smooth="yes"/>
      <point x="171" y="688" type="line" smooth="yes"/>
      <point x="171" y="452"/>
      <point x="360" y="266"/>
    </contour>
    <contour>
      <point x="160" y="168" type="line"/>
      <point x="393" y="401" type="line"/>
      <point x="298" y="496" type="line"/>
      <point x="65" y="263" type="line"/>
    </contour>
    <contour>
      <point x="600" y="394" type="curve" smooth="yes"/>
      <point x="434" y="394"/>
      <point x="313" y="520"/>
      <point x="313" y="691" type="curve" smooth="yes"/>
      <point x="313" y="715" type="line" smooth="yes"/>
      <point x="313" y="886"/>
      <point x="434" y="1012"/>
      <point x="600" y="1012" type="curve" smooth="yes"/>
      <point x="766" y="1012"/>
      <point x="887" y="886"/>
      <point x="887" y="715" type="curve" smooth="yes"/>
      <point x="887" y="691" type="line" smooth="yes"/>
      <point x="887" y="520"/>
      <point x="766" y="394"/>
    </contour>
    <contour>
      <point x="298" y="910" type="line"/>
      <point x="393" y="1005" type="line"/>
      <point x="160" y="1238" type="line"/>
      <point x="65" y="1143" type="line"/>
    </contour>
    <contour>
      <point x="1040" y="168" type="line"/>
      <point x="1135" y="263" type="line"/>
      <point x="902" y="496" type="line"/>
      <point x="807" y="401" type="line"/>
    </contour>
    <contour>
      <point x="902" y="910" type="line"/>
      <point x="1135" y="1143" type="line"/>
      <point x="1040" y="1238" type="line"/>
      <point x="807" y="1005" type="line"/>
    </contour>
  </outline>
</glyph>
<glyph name="yen" format="2">
  <advance width="1200"/>
  <unicode hex="00A5"/>
  <outline>
    <contour>
      <point x="531" y="552" type="line"/>
      <point x="669" y="552" type="line"/>
      <point x="1122" y="1432" type="line"/>
      <point x="961" y="1432" type="line"/>
      <point x="705" y="926" type="line"/>
      <point x="606" y="712" type="line"/>
      <point x="600" y="712" type="line"/>
      <point x="498" y="926" type="line"/>
      <point x="245" y="1432" type="line"/>
      <point x="78" y="1432" type="line"/>
    </contour>
    <contour>
      <point x="527" y="0" type="line"/>
      <point x="673" y="0" type="line"/>
      <point x="673" y="611" type="line"/>
      <point x="527" y="611" type="line"/>
    </contour>
    <contour>
      <point x="177" y="559" type="line"/>
      <point x="1023" y="559" type="line"/>
      <point x="1023" y="681" type="line"/>
      <point x="177" y="681" type="line"/>
    </contour>
    <contour>
      <point x="177" y="278" type="line"/>
      <point x="1023" y="278" type="line"/>
      <point x="1023" y="400" type="line"/>
      <point x="177" y="400" type="line"/>
    </contour>
  </outline>
</glyph>
<glyph name="section" format="2">
  <advance width="1200"/>
  <unicode hex="00A7"/>
  <outline>
    <contour>
      <point x="815" y="232" type="line"/>
      <point x="970" y="288"/>
      <point x="1060" y="402"/>
      <point x="1060" y="543" type="curve" smooth="yes"/>
      <point x="1060" y="705"/>
      <point x="971" y="819"/>
      <point x="794" y="883" type="curve" smooth="yes"/>
      <point x="551" y="971" type="line" smooth="yes"/>
      <point x="450" y="1008"/>
      <point x="407" y="1060"/>
      <point x="407" y="1146" type="curve" smooth="yes"/>
      <point x="407" y="1256"/>
      <point x="489" y="1322"/>
      <point x="623" y="1322" type="curve" smooth="yes"/>
      <point x="750" y="1322"/>
      <point x="835" y="1270"/>
      <point x="891" y="1158" type="curve"/>
      <point x="1018" y="1226" type="line"/>
      <point x="941" y="1380"/>
      <point x="802" y="1462"/>
      <point x="619" y="1462" type="curve" smooth="yes"/>
      <point x="406" y="1462"/>
      <point x="261" y="1333"/>
      <point x="261" y="1144" type="curve" smooth="yes"/>
      <point x="261" y="998"/>
      <point x="347" y="885"/>
      <point x="501" y="830" type="curve" smooth="yes"/>
      <point x="748" y="741" type="line" smooth="yes"/>
      <point x="873" y="696"/>
      <point x="920" y="641"/>
      <point x="920" y="539" type="curve" smooth="yes"/>
      <point x="920" y="434"/>
      <point x="849" y="344"/>
      <point x="737" y="307" type="curve"/>
    </contour>
    <contour>
      <point x="594" y="-212" type="curve" smooth="yes"/>
      <point x="799" y="-212"/>
      <point x="939" y="-86"/>
      <point x="939" y="100" type="curve" smooth="yes"/>
      <point x="939" y="244"/>
      <point x="854" y="354"/>
      <point x="699" y="410" type="curve" smooth="yes"/>
      <point x="452" y="499" type="line" smooth="yes"/>
      <point x="327" y="544"/>
      <point x="280" y="599"/>
      <point x="280" y="701" type="curve" smooth="yes"/>
      <point x="280" y="806"/>
      <point x="351" y="896"/>
      <point x="463" y="933" type="curve"/>
      <point x="385" y="1008" type="line"/>
      <point x="230" y="952"/>
      <point x="140" y="838"/>
      <point x="140" y="697" type="curve" smooth="yes"/>
      <point x="140" y="535"/>
      <point x="229" y="421"/>
      <point x="406" y="357" type="curve" smooth="yes"/>
      <point x="649" y="269" type="line" smooth="yes"/>
      <point x="752" y="232"/>
      <point x="793" y="183"/>
      <point x="793" y="98" type="curve" smooth="yes"/>
      <point x="793" y="-9"/>
      <point x="717" y="-72"/>
      <point x="590" y="-72" type="curve" smooth="yes"/>
      <point x="457" y="-72"/>
      <point x="367" y="-20"/>
      <point x="309" y="92" type="curve"/>
      <point x="182" y="24" type="line"/>
      <point x="261" y="-130"/>
      <point x="405" y="-212"/>
    </contour>
  </outline>
</glyph>
<glyph name="copyright" format="2">
  <advance width="1200"/>
  <unicode hex="00A9"/>
  <outline>
    <contour>
      <point x="600" y="-30" type="curve" smooth="yes"/>
      <point x="961" y="-30"/>
      <point x="1192" y="237"/>
      <point x="1192" y="654" type="curve" smooth="yes"/>
      <point x="1192" y="778" type="line" smooth="yes"/>
      <point x="1192" y="1195"/>
      <point x="961" y="1462"/>
      <point x="600" y="1462" type="curve" smooth="yes"/>
      <point x="239" y="1462"/>
      <point x="8" y="1195"/>
      <point x="8" y="778" type="curve" smooth="yes"/>
      <point x="8" y="654" type="line" smooth="yes"/>
      <point x="8" y="237"/>
      <point x="239" y="-30"/>
    </contour>
    <contour>
      <point x="600" y="60" type="curve" smooth="yes"/>
      <point x="292" y="60"/>
      <point x="108" y="282"/>
      <point x="108" y="653" type="curve" smooth="yes"/>
      <point x="108" y="779" type="line" smooth="yes"/>
      <point x="108" y="1150"/>
      <point x="292" y="1372"/>
      <point x="600" y="1372" type="curve" smooth="yes"/>
      <point x="908" y="1372"/>
      <point x="1092" y="1150"/>
      <point x="1092" y="779" type="curve" smooth="yes"/>
      <point x="1092" y="653" type="line" smooth="yes"/>
      <point x="1092" y="282"/>
      <point x="908" y="60"/>
    </contour>
    <contour>
      <point x="623" y="302" type="curve" smooth="yes"/>
      <point x="793" y="302"/>
      <point x="901" y="407"/>
      <point x="920" y="589" type="curve"/>
      <point x="795" y="602" type="line"/>
      <point x="784" y="485"/>
      <point x="725" y="426"/>
      <point x="621" y="426" type="curve" smooth="yes"/>
      <point x="488" y="426"/>
      <point x="408" y="525"/>
      <point x="408" y="692" type="curve" smooth="yes"/>
      <point x="408" y="748" type="line" smooth="yes"/>
      <point x="408" y="915"/>
      <point x="488" y="1014"/>
      <point x="621" y="1014" type="curve" smooth="yes"/>
      <point x="725" y="1014"/>
      <point x="784" y="955"/>
      <point x="795" y="838" type="curve"/>
      <point x="920" y="851" type="line"/>
      <point x="901" y="1034"/>
      <point x="793" y="1138"/>
      <point x="623" y="1138" type="curve" smooth="yes"/>
      <point x="416" y="1138"/>
      <point x="282" y="982"/>
      <point x="282" y="742" type="curve" smooth="yes"/>
      <point x="282" y="698" type="line" smooth="yes"/>
      <point x="282" y="458"/>
      <point x="416" y="302"/>
    </contour>
  </outline>
</glyph>
<glyph name="logicalnot" format="2">
  <advance width="1200"/>
  <unicode hex="00AC"/>
  <outline>
    <contour>
      <point x="886" y="163" type="line"/>
      <point x="1036" y="163" type="line"/>
      <point x="1036" y="699" type="line"/>
      <point x="164" y="699" type="line"/>
      <point x="164" y="553" type="line"/>
      <point x="946" y="553" type="line"/>
      <point x="886" y="603" type="line"/>
    </contour>
  </outline>
</glyph>
<glyph name="twosuperior" format="2">
  <advance width="1200"/>
  <unicode hex="00B2"/>
  <outline>
    <contour>
      <point x="254" y="700" type="line"/>
      <point x="896" y="700" type="line"/>
      <point x="896" y="836" type="line"/>
      <point x="450" y="836" type="line"/>
      <point x="450" y="841" type="line"/>
      <point x="713" y="1110" type="line" smooth="yes"/>
      <point x="837" y="1237"/>
      <point x="879" y="1315"/>
      <point x="879" y="1420" type="curve" smooth="yes"/>
      <point x="879" y="1428" type="line" smooth="yes"/>
      <point x="879" y="1590"/>
      <point x="759" y="1706"/>
      <point x="590" y="1706" type="curve" smooth="yes"/>
      <point x="439" y="1706"/>
      <point x="319" y="1621"/>
      <point x="251" y="1468" type="curve"/>
      <point x="387" y="1410" type="line"/>
      <point x="434" y="1516"/>
      <point x="499" y="1568"/>
      <point x="586" y="1568" type="curve" smooth="yes"/>
      <point x="676" y="1568"/>
      <point x="729" y="1514"/>
      <point x="729" y="1423" type="curve" smooth="yes"/>
      <point x="729" y="1416" type="line" smooth="yes"/>
      <point x="729" y="1341"/>
      <point x="699" y="1285"/>
      <point x="609" y="1192" type="curve" smooth="yes"/>
      <point x="254" y="825" type="line"/>
    </contour>
  </outline>
</glyph>
<glyph name="micro" format="2">
  <advance width="1200"/>
  <unicode hex="00B5"/>
  <outline>
    <contour>
      <point x="160" y="-414" type="line"/>
      <point x="306" y="-414" type="line"/>
      <point x="290" y="120" type="line"/>
      <point x="220" y="140" type="line"/>
      <point x="264" y="30"/>
      <point x="358" y="-30"/>
      <point x="484" y="-30" type="curve" smooth="yes"/>
      <point x="623" y="-30"/>
      <point x="730" y="42"/>
      <point x="797" y="181" type="curve"/>
      <point x="805" y="181" type="line"/>
      <point x="810" y="50"/>
      <point x="883" y="-30"/>
      <point x="1002" y="-30" type="curve" smooth="yes"/>
      <point x="1060" y="-30"/>
      <point x="1109" y="-13"/>
      <point x="1156" y="22" type="curve"/>
      <point x="1105" y="126" type="line"/>
      <point x="1077" y="110"/>
      <point x="1054" y="102"/>
      <point x="1024" y="102" type="curve" smooth="yes"/>
      <point x="965" y="102"/>
      <point x="935" y="137"/>
      <point x="935" y="204" type="curve" smooth="yes"/>
      <point x="935" y="1045" type="line"/>
      <point x="795" y="1045" type="line"/>
      <point x="795" y="480" type="line" smooth="yes"/>
      <point x="795" y="252"/>
      <point x="673" y="100"/>
      <point x="490" y="100" type="curve" smooth="yes"/>
      <point x="372" y="100"/>
      <point x="300" y="171"/>
      <point x="300" y="287" type="curve" smooth="yes"/>
      <point x="300" y="1045" type="line"/>
      <point x="160" y="1045" type="line"/>
    </contour>
  </outline>
</glyph>
<glyph name="ordmasculine" format="2">
  <advance width="1200"/>
  <unicode hex="00BA"/>
  <outline>
    <contour>
      <point x="518" y="628" type="curve" smooth="yes"/>
      <point x="738" y="628"/>
      <point x="896" y="794"/>
      <point x="896" y="1030" type="curve" smooth="yes"/>
      <point x="896" y="1060" type="line" smooth="yes"/>
      <point x="896" y="1296"/>
      <point x="738" y="1462"/>
      <point x="518" y="1462" type="curve" smooth="yes"/>
      <point x="298" y="1462"/>
      <point x="140" y="1296"/>
      <point x="140" y="1060" type="curve" smooth="yes"/>
      <point x="140" y="1030" type="line" smooth="yes"/>
      <point x="140" y="794"/>
      <point x="298" y="628"/>
    </contour>
    <contour>
      <point x="518" y="762" type="curve" smooth="yes"/>
      <point x="375" y="762"/>
      <point x="286" y="864"/>
      <point x="286" y="1032" type="curve" smooth="yes"/>
      <point x="286" y="1058" type="line" smooth="yes"/>
      <point x="286" y="1226"/>
      <point x="375" y="1328"/>
      <point x="518" y="1328" type="curve" smooth="yes"/>
      <point x="661" y="1328"/>
      <point x="750" y="1226"/>
      <point x="750" y="1058" type="curve" smooth="yes"/>
      <point x="750" y="1032" type="line" smooth="yes"/>
      <point x="750" y="864"/>
      <point x="661" y="762"/>
    </contour>
  </outline>
</glyph>
<glyph name="AE" format="2">
  <advance width="1200"/>
  <unicode hex="00C6"/>
  <anchor x="845" y="1432" name="top"/>
  <outline>
    <contour>
      <point x="10" y="0" type="line"/>
      <point x="160" y="0" type="line"/>
      <point x="545" y="1072" type="line"/>
      <point x="610" y="1280" type="line"/>
      <point x="688" y="1280" type="line"/>
      <point x="757" y="1432" type="line"/>
      <point x="546" y="1432" type="line"/>
    </contour>
    <contour>
      <point x="253" y="395" type="line"/>
      <point x="663" y="395" type="line"/>
      <point x="663" y="537" type="line"/>
      <point x="277" y="537" type="line"/>
    </contour>
    <contour>
      <point x="618" y="0" type="line"/>
      <point x="1180" y="0" type="line"/>
      <point x="1180" y="136" type="line"/>
      <point x="760" y="136" type="line"/>
      <point x="760" y="1296" type="line"/>
      <point x="1164" y="1296" type="line"/>
      <point x="1164" y="1432" type="line"/>
      <point x="618" y="1432" type="line"/>
    </contour>
    <contour>
      <point x="695" y="667" type="line"/>
      <point x="1094" y="667" type="line"/>
      <point x="1094" y="803" type="line"/>
      <point x="695" y="803" type="line"/>
    </contour>
  </outline>
</glyph>
<glyph name="Oslash" format="2">
  <advance width="1200"/>
  <unicode hex="00D8"/>
  <guideline x="1117" y="734" angle="90"/>
  <outline>
    <contour>
      <point x="179" y="-168" type="line"/>
      <point x="1137" y="1534" type="line"/>
      <point x="1021" y="1600" type="line"/>
      <point x="63" y="-102" type="line"/>
    </contour>
    <contour>
      <point x="600" y="-30" type="curve" smooth="yes"/>
      <point x="919" y="-30"/>
      <point x="1117" y="249"/>
      <point x="1117" y="698" type="curve" smooth="yes"/>
      <point x="1117" y="734" type="line" smooth="yes"/>
      <point x="1117" y="1173"/>
      <point x="909" y="1462"/>
      <point x="600" y="1462" type="curve" smooth="yes"/>
      <point x="281" y="1462"/>
      <point x="83" y="1183"/>
      <point x="83" y="734" type="curve" smooth="yes"/>
      <point x="83" y="698" type="line" smooth="yes"/>
      <point x="83" y="259"/>
      <point x="291" y="-30"/>
    </contour>
    <contour>
      <point x="600" y="104" type="curve" smooth="yes"/>
      <point x="349" y="104"/>
      <point x="225" y="304"/>
      <point x="225" y="693" type="curve" smooth="yes"/>
      <point x="225" y="739" type="line" smooth="yes"/>
      <point x="225" y="1114"/>
      <point x="361" y="1328"/>
      <point x="600" y="1328" type="curve" smooth="yes"/>
      <point x="849" y="1328"/>
      <point x="975" y="1124"/>
      <point x="975" y="739" type="curve" smooth="yes"/>
      <point x="975" y="693" type="line" smooth="yes"/>
      <point x="975" y="314"/>
      <point x="841" y="104"/>
    </contour>
  </outline>
</glyph>
<glyph name="germandbls" format="2">
  <advance width="1200"/>
  <unicode hex="00DF"/>
  <outline>
    <contour>
      <point x="790" y="-30" type="curve" smooth="yes"/>
      <point x="994" y="-30"/>
      <point x="1128" y="98"/>
      <point x="1128" y="290" type="curve" smooth="yes"/>
      <point x="1128" y="294" type="line" smooth="yes"/>
      <point x="1128" y="445"/>
      <point x="1059" y="551"/>
      <point x="908" y="625" type="curve" smooth="yes"/>
      <point x="826" y="665" type="line" smooth="yes"/>
      <point x="749" y="703"/>
      <point x="719" y="736"/>
      <point x="719" y="786" type="curve" smooth="yes"/>
      <point x="719" y="794" type="line" smooth="yes"/>
      <point x="719" y="922"/>
      <point x="935" y="991"/>
      <point x="935" y="1198" type="curve" smooth="yes"/>
      <point x="935" y="1206" type="line" smooth="yes"/>
      <point x="935" y="1362"/>
      <point x="814" y="1491"/>
      <point x="588" y="1491" type="curve" smooth="yes"/>
      <point x="339" y="1491"/>
      <point x="180" y="1325"/>
      <point x="180" y="1045" type="curve" smooth="yes"/>
      <point x="180" y="0" type="line"/>
      <point x="323" y="0" type="line"/>
      <point x="323" y="1040" type="line" smooth="yes"/>
      <point x="323" y="1253"/>
      <point x="420" y="1357"/>
      <point x="586" y="1357" type="curve" smooth="yes"/>
      <point x="716" y="1357"/>
      <point x="787" y="1292"/>
      <point x="787" y="1195" type="curve" smooth="yes"/>
      <point x="787" y="1193" type="line" smooth="yes"/>
      <point x="787" y="1037"/>
      <point x="571" y="990"/>
      <point x="571" y="777" type="curve" smooth="yes"/>
      <point x="571" y="775" type="line" smooth="yes"/>
      <point x="571" y="675"/>
      <point x="630" y="600"/>
      <point x="723" y="555" type="curve" smooth="yes"/>
      <point x="805" y="515" type="line" smooth="yes"/>
      <point x="930" y="454"/>
      <point x="980" y="392"/>
      <point x="980" y="294" type="curve" smooth="yes"/>
      <point x="980" y="282" type="line" smooth="yes"/>
      <point x="980" y="170"/>
      <point x="902" y="106"/>
      <point x="794" y="106" type="curve" smooth="yes"/>
      <point x="692" y="106"/>
      <point x="624" y="154"/>
      <point x="583" y="240" type="curve"/>
      <point x="457" y="178" type="line"/>
      <point x="518" y="47"/>
      <point x="637" y="-30"/>
    </contour>
  </outline>
</glyph>
<glyph name="eth" format="2">
  <advance width="1200"/>
  <unicode hex="00F0"/>
  <guideline y="1605"/>
  <outline>
    <contour>
      <point x="606" y="-30" type="curve" smooth="yes"/>
      <point x="913" y="-30"/>
      <point x="1080" y="190"/>
      <point x="1080" y="541" type="curve" smooth="yes"/>
      <point x="1080" y="553" type="line" smooth="yes"/>
      <point x="1080" y="1061"/>
      <point x="922" y="1364"/>
      <point x="517" y="1605" type="curve"/>
      <point x="448" y="1490" type="line"/>
      <point x="750" y="1326"/>
      <point x="872" y="1098"/>
      <point x="916" y="843" type="curve"/>
      <point x="883" y="828" type="line"/>
      <point x="929" y="802" type="line"/>
      <point x="871" y="924"/>
      <point x="759" y="1006"/>
      <point x="590" y="1006" type="curve" smooth="yes"/>
      <point x="321" y="1006"/>
      <point x="132" y="802"/>
      <point x="132" y="499" type="curve" smooth="yes"/>
      <point x="132" y="483" type="line" smooth="yes"/>
      <point x="132" y="175"/>
      <point x="321" y="-30"/>
    </contour>
    <contour>
      <point x="606" y="106" type="curve" smooth="yes"/>
      <point x="395" y="106"/>
      <point x="280" y="250"/>
      <point x="280" y="486" type="curve" smooth="yes"/>
      <point x="280" y="496" type="line" smooth="yes"/>
      <point x="280" y="732"/>
      <point x="395" y="876"/>
      <point x="606" y="876" type="curve" smooth="yes"/>
      <point x="817" y="876"/>
      <point x="932" y="732"/>
      <point x="932" y="496" type="curve" smooth="yes"/>
      <point x="932" y="486" type="line" smooth="yes"/>
      <point x="932" y="252"/>
      <point x="819" y="106"/>
    </contour>
    <contour>
      <point x="336" y="1149" type="line"/>
      <point x="782" y="1269" type="line"/>
      <point x="703" y="1368" type="line"/>
      <point x="304" y="1267" type="line"/>
    </contour>
    <contour>
      <point x="802" y="1286" type="line"/>
      <point x="1058" y="1349" type="line"/>
      <point x="1026" y="1467" type="line"/>
      <point x="724" y="1383" type="line"/>
    </contour>
  </outline>
</glyph>
<glyph name="divide" format="2">
  <advance width="1200"/>
  <unicode hex="00F7"/>
  <outline>
    <contour>
      <point x="164" y="553" type="line"/>
      <point x="1036" y="553" type="line"/>
      <point x="1036" y="699" type="line"/>
      <point x="164" y="699" type="line"/>
    </contour>
    <contour>
      <point x="600" y="876" type="curve" smooth="yes"/>
      <point x="668" y="876"/>
      <point x="725" y="930"/>
      <point x="725" y="1000" type="curve" smooth="yes"/>
      <point x="725" y="1070"/>
      <point x="668" y="1124"/>
      <point x="600" y="1124" type="curve" smooth="yes"/>
      <point x="532" y="1124"/>
      <point x="475" y="1070"/>
      <point x="475" y="1000" type="curve" smooth="yes"/>
      <point x="475" y="930"/>
      <point x="532" y="876"/>
    </contour>
    <contour>
      <point x="600" y="128" type="curve" smooth="yes"/>
      <point x="668" y="128"/>
      <point x="725" y="182"/>
      <point x="725" y="252" type="curve" smooth="yes"/>
      <point x="725" y="322"/>
      <point x="668" y="376"/>
      <point x="600" y="376" type="curve" smooth="yes"/>
      <point x="532" y="376"/>
      <point x="475" y="322"/>
      <point x="475" y="252" type="curve" smooth="yes"/>
      <point x="475" y="182"/>
      <point x="532" y="128"/>
    </contour>
  </outline>
</glyph>
<glyph name="oslash" format="2">
  <advance width="1200"/>
  <unicode hex="00F8"/>
  <guideline x="1074" y="537" angle="90"/>
  <outline>
    <contour>
      <point x="212" y="-168" type="line"/>
      <point x="1098" y="1139" type="line"/>
      <point x="988" y="1213" type="line"/>
      <point x="102" y="-94" type="line"/>
    </contour>
    <contour>
      <point x="600" y="-30" type="curve" smooth="yes"/>
      <point x="889" y="-30"/>
      <point x="1080" y="185"/>
      <point x="1080" y="508" type="curve" smooth="yes"/>
      <point x="1080" y="537" type="line" smooth="yes"/>
      <point x="1080" y="840"/>
      <point x="869" y="1075"/>
      <point x="600" y="1075" type="curve" smooth="yes"/>
      <point x="311" y="1075"/>
      <point x="120" y="860"/>
      <point x="120" y="537" type="curve" smooth="yes"/>
      <point x="120" y="508" type="line" smooth="yes"/>
      <point x="120" y="205"/>
      <point x="331" y="-30"/>
    </contour>
    <contour>
      <point x="600" y="98" type="curve" smooth="yes"/>
      <point x="366" y="98"/>
      <point x="260" y="231"/>
      <point x="260" y="511" type="curve" smooth="yes"/>
      <point x="260" y="534" type="line" smooth="yes"/>
      <point x="260" y="794"/>
      <point x="386" y="947"/>
      <point x="600" y="947" type="curve" smooth="yes"/>
      <point x="834" y="947"/>
      <point x="940" y="814"/>
      <point x="940" y="534" type="curve" smooth="yes"/>
      <point x="940" y="511" type="line" smooth="yes"/>
      <point x="940" y="251"/>
      <point x="814" y="98"/>
    </contour>
  </outline>
</glyph>
<glyph name="aogonek" format="2">
  <advance width="1200"/>
  <unicode hex="0105"/>
  <anchor x="614" y="-30" name="bottom"/>
  <anchor x="989" y="0" name="ogonek"/>
  <anchor x="608" y="1045" name="top"/>
  <outline>
    <contour>
      <point x="910" y="-530" type="curve" smooth="yes"/>
      <point x="971" y="-530"/>
      <point x="1025" y="-518"/>
      <point x="1076" y="-492" type="curve"/>
      <point x="1037" y="-378" type="line"/>
      <point x="1000" y="-397"/>
      <point x="965" y="-406"/>
      <point x="922" y="-406" type="curve" smooth="yes"/>
      <point x="840" y="-406"/>
      <point x="782" y="-351"/>
      <point x="782" y="-272" type="curve" smooth="yes"/>
      <point x="782" y="-168"/>
      <point x="842" y="-89"/>
      <point x="989" y="0" type="curve"/>
      <point x="945" y="78" type="line"/>
      <point x="748" y="-19"/>
      <point x="648" y="-142"/>
      <point x="648" y="-284" type="curve" smooth="yes"/>
      <point x="648" y="-425"/>
      <point x="760" y="-530"/>
    </contour>
    <component base="a"/>
  </outline>
</glyph>
<glyph name="Dcroat" format="2">
  <advance width="1200"/>
  <unicode hex="0110"/>
  <outline>
    <contour>
      <point x="200" y="0" type="line"/>
      <point x="535" y="0" type="line" smooth="yes"/>
      <point x="899" y="0"/>
      <point x="1110" y="257"/>
      <point x="1110" y="698" type="curve" smooth="yes"/>
      <point x="1110" y="734" type="line" smooth="yes"/>
      <point x="1110" y="1175"/>
      <point x="899" y="1432"/>
      <point x="535" y="1432" type="curve" smooth="yes"/>
      <point x="200" y="1432" type="line"/>
    </contour>
    <contour>
      <point x="20" y="668" type="line"/>
      <point x="686" y="668" type="line"/>
      <point x="686" y="804" type="line"/>
      <point x="20" y="804" type="line"/>
    </contour>
    <contour>
      <point x="344" y="138" type="line"/>
      <point x="344" y="1294" type="line"/>
      <point x="528" y="1294" type="line" smooth="yes"/>
      <point x="814" y="1294"/>
      <point x="962" y="1104"/>
      <point x="962" y="739" type="curve" smooth="yes"/>
      <point x="962" y="693" type="line" smooth="yes"/>
      <point x="962" y="328"/>
      <point x="813" y="138"/>
      <point x="528" y="138" type="curve" smooth="yes"/>
    </contour>
  </outline>
</glyph>
<glyph name="eogonek" format="2">
  <advance width="1200"/>
  <unicode hex="0119"/>
  <outline>
    <contour>
      <point x="780" y="-530" type="curve" smooth="yes"/>
      <point x="840" y="-530"/>
      <point x="893" y="-517"/>
      <point x="943" y="-490" type="curve"/>
      <point x="907" y="-378" type="line"/>
      <point x="871" y="-397"/>
      <point x="836" y="-406"/>
      <point x="792" y="-406" type="curve" smooth="yes"/>
      <point x="709" y="-406"/>
      <point x="651" y="-349"/>
      <point x="651" y="-266" type="curve" smooth="yes"/>
      <point x="651" y="-175"/>
      <point x="695" y="-117"/>
      <point x="819" y="-28" type="curve" smooth="yes"/>
      <point x="937" y="57"/>
      <point x="995" y="113"/>
      <point x="1042" y="188" type="curve"/>
      <point x="933" y="276" type="line"/>
      <point x="863" y="162"/>
      <point x="767" y="107"/>
      <point x="636" y="107" type="curve" smooth="yes"/>
      <point x="422" y="107"/>
      <point x="288" y="264"/>
      <point x="288" y="512" type="curve" smooth="yes"/>
      <point x="288" y="545" type="line" smooth="yes"/>
      <point x="288" y="791"/>
      <point x="417" y="941"/>
      <point x="619" y="941" type="curve" smooth="yes"/>
      <point x="791" y="941"/>
      <point x="901" y="815"/>
      <point x="901" y="620" type="curve"/>
      <point x="901" y="612" type="line"/>
      <point x="242" y="612" type="line"/>
      <point x="242" y="478" type="line"/>
      <point x="1040" y="478" type="line"/>
      <point x="1046" y="525"/>
      <point x="1049" y="571"/>
      <point x="1049" y="620" type="curve" smooth="yes"/>
      <point x="1049" y="894"/>
      <point x="880" y="1075"/>
      <point x="622" y="1075" type="curve" smooth="yes"/>
      <point x="335" y="1075"/>
      <point x="144" y="865"/>
      <point x="144" y="550" type="curve" smooth="yes"/>
      <point x="144" y="507" type="line" smooth="yes"/>
      <point x="144" y="184"/>
      <point x="337" y="-30"/>
      <point x="630" y="-30" type="curve" smooth="yes"/>
      <point x="687" y="-30"/>
      <point x="739" y="-23"/>
      <point x="786" y="-10" type="curve"/>
      <point x="857" y="78" type="line"/>
      <point x="635" y="-13"/>
      <point x="517" y="-128"/>
      <point x="517" y="-278" type="curve" smooth="yes"/>
      <point x="517" y="-423"/>
      <point x="629" y="-530"/>
    </contour>
  </outline>
</glyph>
<glyph name="idotless" format="2">
  <advance width="1200"/>
  <unicode hex="0131"/>
  <anchor x="779" y="0" name="ogonek"/>
  <anchor x="645" y="1045" name="top"/>
  <outline>
    <contour>
      <point x="576" y="67" type="line"/>
      <point x="714" y="67" type="line"/>
      <point x="714" y="1045" type="line"/>
      <point x="576" y="1045" type="line"/>
    </contour>
    <contour>
      <point x="215" y="0" type="line"/>
      <point x="1065" y="0" type="line"/>
      <point x="1065" y="122" type="line"/>
      <point x="215" y="122" type="line"/>
    </contour>
    <contour>
      <point x="235" y="923" type="line"/>
      <point x="656" y="923" type="line"/>
      <point x="656" y="1045" type="line"/>
      <point x="235" y="1045" type="line"/>
    </contour>
  </outline>
</glyph>
<glyph name="IJ" format="2">
  <advance width="1200"/>
  <unicode hex="0132"/>
  <outline>
    <contour>
      <point x="617" y="-30" type="curve" smooth="yes"/>
      <point x="875" y="-30"/>
      <point x="1024" y="148"/>
      <point x="1024" y="435" type="curve" smooth="yes"/>
      <point x="1024" y="1432" type="line"/>
      <point x="876" y="1432" type="line"/>
      <point x="876" y="439" type="line" smooth="yes"/>
      <point x="876" y="221"/>
      <point x="788" y="110"/>
      <point x="616" y="110" type="curve" smooth="yes"/>
      <point x="465" y="110"/>
      <point x="368" y="193"/>
      <point x="315" y="355" type="curve"/>
      <point x="176" y="309" type="line"/>
      <point x="246" y="94"/>
      <point x="400" y="-30"/>
    </contour>
    <contour>
      <point x="176" y="585" type="line"/>
      <point x="324" y="585" type="line"/>
      <point x="324" y="1432" type="line"/>
      <point x="176" y="1432" type="line"/>
    </contour>
  </outline>
</glyph>
<glyph name="ij" format="2">
  <advance width="1200"/>
  <unicode hex="0133"/>
  <outline>
    <contour>
      <point x="737" y="-440" type="curve" smooth="yes"/>
      <point x="953" y="-440"/>
      <point x="1094" y="-289"/>
      <point x="1094" y="-45" type="curve" smooth="yes"/>
      <point x="1094" y="1045" type="line"/>
      <point x="954" y="1045" type="line"/>
      <point x="954" y="-47" type="line" smooth="yes"/>
      <point x="954" y="-216"/>
      <point x="878" y="-304"/>
      <point x="735" y="-304" type="curve" smooth="yes"/>
      <point x="651" y="-304"/>
      <point x="571" y="-274"/>
      <point x="489" y="-215" type="curve"/>
      <point x="415" y="-331" type="line"/>
      <point x="518" y="-405"/>
      <point x="623" y="-440"/>
    </contour>
    <contour>
      <point x="46" y="0" type="line"/>
      <point x="734" y="0" type="line"/>
      <point x="734" y="122" type="line"/>
      <point x="46" y="122" type="line"/>
    </contour>
    <contour>
      <point x="326" y="67" type="line"/>
      <point x="464" y="67" type="line"/>
      <point x="464" y="1045" type="line"/>
      <point x="326" y="1045" type="line"/>
    </contour>
    <contour>
      <point x="66" y="923" type="line"/>
      <point x="406" y="923" type="line"/>
      <point x="406" y="1045" type="line"/>
      <point x="66" y="1045" type="line"/>
    </contour>
    <contour>
      <point x="371" y="1289" type="curve" smooth="yes"/>
      <point x="449" y="1289"/>
      <point x="507" y="1352"/>
      <point x="507" y="1427" type="curve" smooth="yes"/>
      <point x="507" y="1505"/>
      <point x="449" y="1564"/>
      <point x="371" y="1564" type="curve" smooth="yes"/>
      <point x="295" y="1564"/>
      <point x="233" y="1505"/>
      <point x="233" y="1428" type="curve" smooth="yes"/>
      <point x="233" y="1352"/>
      <point x="295" y="1289"/>
    </contour>
    <contour>
      <point x="694" y="923" type="line"/>
      <point x="1061" y="923" type="line"/>
      <point x="1061" y="1045" type="line"/>
      <point x="694" y="1045" type="line"/>
    </contour>
    <contour>
      <point x="999" y="1289" type="curve" smooth="yes"/>
      <point x="1075" y="1289"/>
      <point x="1135" y="1350"/>
      <point x="1135" y="1427" type="curve" smooth="yes"/>
      <point x="1135" y="1505"/>
      <point x="1077" y="1564"/>
      <point x="999" y="1564" type="curve" smooth="yes"/>
      <point x="922" y="1564"/>
      <point x="861" y="1503"/>
      <point x="861" y="1428" type="curve" smooth="yes"/>
      <point x="861" y="1352"/>
      <point x="924" y="1289"/>
    </contour>
  </outline>
</glyph>
<glyph name="lslash" format="2">
  <advance width="1200"/>
  <unicode hex="0142"/>
  <anchor x="771" y="-30" name="bottom"/>
  <anchor x="514" y="1460" name="top"/>
  <outline>
    <contour>
      <point x="146" y="472" type="line"/>
      <point x="494" y="670" type="line"/>
      <point x="554" y="691" type="line"/>
      <point x="965" y="923" type="line"/>
      <point x="965" y="1083" type="line"/>
      <point x="556" y="851" type="line"/>
      <point x="496" y="830" type="line"/>
      <point x="146" y="632" type="line"/>
    </contour>
    <component base="l"/>
  </outline>
</glyph>
<glyph name="napostrophe" format="2">
  <advance width="1200"/>
  <unicode hex="0149"/>
  <outline>
    <contour>
      <point x="354" y="0" type="line"/>
      <point x="494" y="0" type="line"/>
      <point x="494" y="618" type="line" smooth="yes"/>
      <point x="494" y="814"/>
      <point x="600" y="944"/>
      <point x="761" y="944" type="curve" smooth="yes"/>
      <point x="900" y="944"/>
      <point x="974" y="851"/>
      <point x="974" y="676" type="curve" smooth="yes"/>
      <point x="974" y="0" type="line"/>
      <point x="1114" y="0" type="line"/>
      <point x="1114" y="691" type="line" smooth="yes"/>
      <point x="1114" y="932"/>
      <point x="996" y="1075"/>
      <point x="799" y="1075" type="curve" smooth="yes"/>
      <point x="668" y="1075"/>
      <point x="561" y="1012"/>
      <point x="489" y="894" type="curve"/>
      <point x="483" y="894" type="line"/>
      <point x="483" y="1045" type="line"/>
      <point x="354" y="1045" type="line"/>
    </contour>
    <contour>
      <point x="22" y="882" type="line"/>
      <point x="176" y="882" type="line"/>
      <point x="454" y="1460" type="line"/>
      <point x="270" y="1460" type="line"/>
    </contour>
  </outline>
</glyph>
<glyph name="Eng" format="2">
  <advance width="1200"/>
  <unicode hex="014A"/>
  <outline>
    <contour>
      <point x="722" y="-440" type="curve" smooth="yes"/>
      <point x="939" y="-440"/>
      <point x="1080" y="-292"/>
      <point x="1080" y="-53" type="curve" smooth="yes"/>
      <point x="1080" y="1009" type="line" smooth="yes"/>
      <point x="1080" y="1289"/>
      <point x="927" y="1462"/>
      <point x="678" y="1462" type="curve" smooth="yes"/>
      <point x="526" y="1462"/>
      <point x="379" y="1376"/>
      <point x="292" y="1237" type="curve"/>
      <point x="286" y="1237" type="line"/>
      <point x="286" y="1432" type="line"/>
      <point x="150" y="1432" type="line"/>
      <point x="150" y="0" type="line"/>
      <point x="296" y="0" type="line"/>
      <point x="296" y="922" type="line" smooth="yes"/>
      <point x="296" y="1159"/>
      <point x="442" y="1324"/>
      <point x="651" y="1324" type="curve" smooth="yes"/>
      <point x="837" y="1324"/>
      <point x="934" y="1212"/>
      <point x="934" y="997" type="curve" smooth="yes"/>
      <point x="934" y="-55" type="line" smooth="yes"/>
      <point x="934" y="-216"/>
      <point x="859" y="-300"/>
      <point x="717" y="-300" type="curve" smooth="yes"/>
      <point x="629" y="-300"/>
      <point x="551" y="-268"/>
      <point x="481" y="-202" type="curve"/>
      <point x="390" y="-311" type="line"/>
      <point x="480" y="-395"/>
      <point x="596" y="-440"/>
    </contour>
  </outline>
</glyph>
<glyph name="oe" format="2">
  <advance width="1200"/>
  <unicode hex="0153"/>
  <outline>
    <contour>
      <point x="340" y="-30" type="curve" smooth="yes"/>
      <point x="485" y="-30"/>
      <point x="581" y="84"/>
      <point x="617" y="299" type="curve"/>
      <point x="560" y="299" type="line"/>
      <point x="589" y="101"/>
      <point x="711" y="-30"/>
      <point x="868" y="-30" type="curve" smooth="yes"/>
      <point x="993" y="-30"/>
      <point x="1089" y="43"/>
      <point x="1161" y="193" type="curve"/>
      <point x="1049" y="260" type="line"/>
      <point x="997" y="155"/>
      <point x="940" y="108"/>
      <point x="865" y="108" type="curve" smooth="yes"/>
      <point x="732" y="108"/>
      <point x="652" y="260"/>
      <point x="652" y="512" type="curve" smooth="yes"/>
      <point x="652" y="545" type="line" smooth="yes"/>
      <point x="652" y="784"/>
      <point x="737" y="941"/>
      <point x="867" y="941" type="curve" smooth="yes"/>
      <point x="975" y="941"/>
      <point x="1030" y="832"/>
      <point x="1030" y="620" type="curve"/>
      <point x="1030" y="607" type="line"/>
      <point x="615" y="607" type="line"/>
      <point x="615" y="481" type="line"/>
      <point x="1165" y="481" type="line"/>
      <point x="1167" y="525"/>
      <point x="1168" y="567"/>
      <point x="1168" y="610" type="curve" smooth="yes"/>
      <point x="1168" y="897"/>
      <point x="1058" y="1075"/>
      <point x="878" y="1075" type="curve" smooth="yes"/>
      <point x="731" y="1075"/>
      <point x="616" y="960"/>
      <point x="581" y="782" type="curve"/>
      <point x="615" y="782" type="line"/>
      <point x="575" y="975"/>
      <point x="481" y="1075"/>
      <point x="340" y="1075" type="curve" smooth="yes"/>
      <point x="138" y="1075"/>
      <point x="26" y="883"/>
      <point x="26" y="537" type="curve" smooth="yes"/>
      <point x="26" y="508" type="line" smooth="yes"/>
      <point x="26" y="162"/>
      <point x="138" y="-30"/>
    </contour>
    <contour>
      <point x="345" y="102" type="curve" smooth="yes"/>
      <point x="225" y="102"/>
      <point x="164" y="239"/>
      <point x="164" y="511" type="curve" smooth="yes"/>
      <point x="164" y="534" type="line" smooth="yes"/>
      <point x="164" y="806"/>
      <point x="225" y="943"/>
      <point x="345" y="943" type="curve" smooth="yes"/>
      <point x="465" y="943"/>
      <point x="526" y="806"/>
      <point x="526" y="534" type="curve" smooth="yes"/>
      <point x="526" y="511" type="line" smooth="yes"/>
      <point x="526" y="239"/>
      <point x="465" y="102"/>
    </contour>
  </outline>
</glyph>
<glyph name="uogonek" format="2">
  <advance width="1200"/>
  <unicode hex="0173"/>
  <anchor x="611" y="-30" name="bottom"/>
  <anchor x="998" y="0" name="ogonek"/>
  <anchor x="591" y="1045" name="top"/>
  <outline>
    <contour>
      <point x="919" y="-530" type="curve" smooth="yes"/>
      <point x="980" y="-530"/>
      <point x="1034" y="-518"/>
      <point x="1085" y="-492" type="curve"/>
      <point x="1046" y="-378" type="line"/>
      <point x="1009" y="-397"/>
      <point x="974" y="-406"/>
      <point x="931" y="-406" type="curve" smooth="yes"/>
      <point x="849" y="-406"/>
      <point x="791" y="-351"/>
      <point x="791" y="-272" type="curve" smooth="yes"/>
      <point x="791" y="-168"/>
      <point x="851" y="-89"/>
      <point x="998" y="0" type="curve"/>
      <point x="954" y="78" type="line"/>
      <point x="757" y="-19"/>
      <point x="657" y="-142"/>
      <point x="657" y="-284" type="curve" smooth="yes"/>
      <point x="657" y="-425"/>
      <point x="769" y="-530"/>
    </contour>
    <component base="u"/>
  </outline>
</glyph>
<glyph name="Bhook" format="2">
  <advance width="1200"/>
  <unicode hex="0181"/>
  <outline>
    <contour>
      <point x="402" y="0" type="line"/>
      <point x="768" y="0" type="line" smooth="yes"/>
      <point x="1014" y="0"/>
      <point x="1180" y="151"/>
      <point x="1180" y="374" type="curve" smooth="yes"/>
      <point x="1180" y="404" type="line" smooth="yes"/>
      <point x="1180" y="576"/>
      <point x="1080" y="703"/>
      <point x="920" y="734" type="curve"/>
      <point x="920" y="740" type="line"/>
      <point x="1054" y="795"/>
      <point x="1128" y="906"/>
      <point x="1128" y="1054" type="curve" smooth="yes"/>
      <point x="1128" y="1084" type="line" smooth="yes"/>
      <point x="1128" y="1298"/>
      <point x="976" y="1432"/>
      <point x="734" y="1432" type="curve" smooth="yes"/>
      <point x="402" y="1432" type="line"/>
    </contour>
    <contour>
      <point x="58" y="912" type="curve"/>
      <point x="190" y="964" type="line"/>
      <point x="169" y="1016"/>
      <point x="158" y="1062"/>
      <point x="158" y="1114" type="curve" smooth="yes"/>
      <point x="158" y="1230"/>
      <point x="230" y="1296"/>
      <point x="356" y="1296" type="curve" smooth="yes"/>
      <point x="508" y="1296" type="line"/>
      <point x="508" y="1432" type="line"/>
      <point x="356" y="1432" type="line" smooth="yes"/>
      <point x="155" y="1432"/>
      <point x="10" y="1300"/>
      <point x="10" y="1117" type="curve" smooth="yes"/>
      <point x="10" y="1051"/>
      <point x="26" y="983"/>
    </contour>
    <contour>
      <point x="542" y="136" type="line"/>
      <point x="542" y="1296" type="line"/>
      <point x="732" y="1296" type="line" smooth="yes"/>
      <point x="894" y="1296"/>
      <point x="980" y="1214"/>
      <point x="980" y="1060" type="curve" smooth="yes"/>
      <point x="980" y="1038" type="line" smooth="yes"/>
      <point x="980" y="885"/>
      <point x="892" y="802"/>
      <point x="732" y="802" type="curve" smooth="yes"/>
      <point x="464" y="802" type="line"/>
      <point x="464" y="666" type="line"/>
      <point x="746" y="666" type="line" smooth="yes"/>
      <point x="932" y="666"/>
      <point x="1032" y="578"/>
      <point x="1032" y="414" type="curve" smooth="yes"/>
      <point x="1032" y="388" type="line" smooth="yes"/>
      <point x="1032" y="228"/>
      <point x="932" y="136"/>
      <point x="758" y="136" type="curve" smooth="yes"/>
    </contour>
  </outline>
</glyph>
<glyph name="Schwa" format="2">
  <advance width="1200"/>
  <unicode hex="018F"/>
  <outline>
    <contour>
      <point x="616" y="-30" type="curve" smooth="yes"/>
      <point x="945" y="-30"/>
      <point x="1132" y="234"/>
      <point x="1132" y="699" type="curve" smooth="yes"/>
      <point x="1132" y="732" type="line" smooth="yes"/>
      <point x="1132" y="1212"/>
      <point x="961" y="1462"/>
      <point x="632" y="1462" type="curve" smooth="yes"/>
      <point x="425" y="1462"/>
      <point x="249" y="1362"/>
      <point x="130" y="1176" type="curve"/>
      <point x="252" y="1099" type="line"/>
      <point x="349" y="1250"/>
      <point x="470" y="1322"/>
      <point x="630" y="1322" type="curve" smooth="yes"/>
      <point x="873" y="1322"/>
      <point x="986" y="1137"/>
      <point x="986" y="737" type="curve" smooth="yes"/>
      <point x="986" y="694" type="line" smooth="yes"/>
      <point x="986" y="304"/>
      <point x="861" y="110"/>
      <point x="610" y="110" type="curve" smooth="yes"/>
      <point x="372" y="110"/>
      <point x="247" y="281"/>
      <point x="247" y="606" type="curve"/>
      <point x="247" y="612" type="line"/>
      <point x="1029" y="612" type="line"/>
      <point x="1029" y="756" type="line"/>
      <point x="111" y="756" type="line"/>
      <point x="105" y="711"/>
      <point x="102" y="662"/>
      <point x="102" y="606" type="curve" smooth="yes"/>
      <point x="102" y="206"/>
      <point x="293" y="-30"/>
    </contour>
  </outline>
</glyph>
<glyph name="Khook" format="2">
  <advance width="1200"/>
  <unicode hex="0198"/>
  <outline>
    <contour>
      <point x="932" y="0" type="line"/>
      <point x="1118" y="0" type="line"/>
      <point x="451" y="777" type="line"/>
      <point x="451" y="737" type="line"/>
      <point x="764" y="1168" type="line" smooth="yes"/>
      <point x="847" y="1282"/>
      <point x="900" y="1322"/>
      <point x="980" y="1322" type="curve" smooth="yes"/>
      <point x="1029" y="1322"/>
      <point x="1061" y="1307"/>
      <point x="1100" y="1268" type="curve"/>
      <point x="1186" y="1376" type="line"/>
      <point x="1130" y="1435"/>
      <point x="1072" y="1462"/>
      <point x="984" y="1462" type="curve" smooth="yes"/>
      <point x="850" y="1462"/>
      <point x="771" y="1406"/>
      <point x="655" y="1243" type="curve" smooth="yes"/>
      <point x="300" y="743" type="line"/>
      <point x="300" y="738" type="line"/>
    </contour>
    <contour>
      <point x="158" y="0" type="line"/>
      <point x="304" y="0" type="line"/>
      <point x="304" y="1432" type="line"/>
      <point x="158" y="1432" type="line"/>
    </contour>
  </outline>
</glyph>
<glyph name="Yhook" format="2">
  <advance width="1200"/>
  <unicode hex="01B3"/>
  <outline>
    <contour>
      <point x="435" y="539" type="line"/>
      <point x="573" y="539" type="line"/>
      <point x="766" y="1025" type="line" smooth="yes"/>
      <point x="858" y="1257"/>
      <point x="913" y="1322"/>
      <point x="1018" y="1322" type="curve" smooth="yes"/>
      <point x="1059" y="1322"/>
      <point x="1089" y="1313"/>
      <point x="1124" y="1291" type="curve"/>
      <point x="1188" y="1409" type="line"/>
      <point x="1130" y="1446"/>
      <point x="1075" y="1462"/>
      <point x="1010" y="1462" type="curve" smooth="yes"/>
      <point x="843" y="1462"/>
      <point x="746" y="1360"/>
      <point x="636" y="1069" type="curve" smooth="yes"/>
      <point x="578" y="915" type="line"/>
      <point x="509" y="701" type="line"/>
      <point x="503" y="701" type="line"/>
      <point x="423" y="915" type="line"/>
      <point x="208" y="1432" type="line"/>
      <point x="42" y="1432" type="line"/>
    </contour>
    <contour>
      <point x="431" y="0" type="line"/>
      <point x="577" y="0" type="line"/>
      <point x="577" y="600" type="line"/>
      <point x="431" y="600" type="line"/>
    </contour>
  </outline>
</glyph>
<glyph name="Dzcaron" format="2">
  <advance width="1200"/>
  <unicode hex="01C5"/>
  <outline>
    <contour>
      <point x="40" y="0" type="line"/>
      <point x="245" y="0" type="line" smooth="yes"/>
      <point x="509" y="0"/>
      <point x="634" y="212"/>
      <point x="634" y="658" type="curve" smooth="yes"/>
      <point x="634" y="774" type="line" smooth="yes"/>
      <point x="634" y="1220"/>
      <point x="509" y="1432"/>
      <point x="245" y="1432" type="curve" smooth="yes"/>
      <point x="40" y="1432" type="line"/>
    </contour>
    <contour>
      <point x="174" y="128" type="line"/>
      <point x="174" y="1304" type="line"/>
      <point x="238" y="1304" type="line" smooth="yes"/>
      <point x="421" y="1304"/>
      <point x="498" y="1149"/>
      <point x="498" y="779" type="curve" smooth="yes"/>
      <point x="498" y="653" type="line" smooth="yes"/>
      <point x="498" y="283"/>
      <point x="421" y="128"/>
      <point x="238" y="128" type="curve" smooth="yes"/>
    </contour>
    <contour>
      <point x="686" y="0" type="line"/>
      <point x="1190" y="0" type="line"/>
      <point x="1190" y="136" type="line"/>
      <point x="834" y="136" type="line"/>
      <point x="1184" y="929" type="line"/>
      <point x="1184" y="1045" type="line"/>
      <point x="714" y="1045" type="line"/>
      <point x="714" y="909" type="line"/>
      <point x="1036" y="909" type="line"/>
      <point x="686" y="116" type="line"/>
    </contour>
    <contour>
      <point x="874" y="1251" type="line"/>
      <point x="1014" y="1251" type="line"/>
      <point x="1206" y="1595" type="line"/>
      <point x="1206" y="1605" type="line"/>
      <point x="1062" y="1605" type="line"/>
      <point x="930" y="1330" type="line"/>
      <point x="958" y="1330" type="line"/>
      <point x="826" y="1605" type="line"/>
      <point x="682" y="1605" type="line"/>
      <point x="682" y="1595" type="line"/>
    </contour>
  </outline>
</glyph>
<glyph name="LJ" format="2">
  <advance width="1200"/>
  <unicode hex="01C7"/>
  <outline>
    <contour>
      <point x="859" y="-30" type="curve" smooth="yes"/>
      <point x="1046" y="-30"/>
      <point x="1170" y="104"/>
      <point x="1170" y="304" type="curve" smooth="yes"/>
      <point x="1170" y="1432" type="line"/>
      <point x="1024" y="1432" type="line"/>
      <point x="1024" y="310" type="line" smooth="yes"/>
      <point x="1024" y="182"/>
      <point x="963" y="110"/>
      <point x="853" y="110" type="curve" smooth="yes"/>
      <point x="788" y="110"/>
      <point x="731" y="131"/>
      <point x="673" y="177" type="curve"/>
      <point x="593" y="64" type="line"/>
      <point x="669" y="4"/>
      <point x="757" y="-30"/>
    </contour>
    <contour>
      <point x="26" y="0" type="line"/>
      <point x="537" y="0" type="line"/>
      <point x="537" y="138" type="line"/>
      <point x="172" y="138" type="line"/>
      <point x="172" y="1432" type="line"/>
      <point x="26" y="1432" type="line"/>
    </contour>
  </outline>
</glyph>
<glyph name="Lj" format="2">
  <advance width="1200"/>
  <unicode hex="01C8"/>
  <outline>
    <contour>
      <point x="764" y="-440" type="curve" smooth="yes"/>
      <point x="980" y="-440"/>
      <point x="1121" y="-289"/>
      <point x="1121" y="-45" type="curve" smooth="yes"/>
      <point x="1121" y="1045" type="line"/>
      <point x="981" y="1045" type="line"/>
      <point x="981" y="-47" type="line" smooth="yes"/>
      <point x="981" y="-217"/>
      <point x="905" y="-306"/>
      <point x="762" y="-306" type="curve" smooth="yes"/>
      <point x="678" y="-306"/>
      <point x="598" y="-276"/>
      <point x="516" y="-217" type="curve"/>
      <point x="442" y="-331" type="line"/>
      <point x="545" y="-405"/>
      <point x="650" y="-440"/>
    </contour>
    <contour>
      <point x="76" y="0" type="line"/>
      <point x="697" y="0" type="line"/>
      <point x="697" y="138" type="line"/>
      <point x="222" y="138" type="line"/>
      <point x="222" y="1432" type="line"/>
      <point x="76" y="1432" type="line"/>
    </contour>
    <contour>
      <point x="569" y="923" type="line"/>
      <point x="1051" y="923" type="line"/>
      <point x="1051" y="1045" type="line"/>
      <point x="569" y="1045" type="line"/>
    </contour>
    <contour>
      <point x="1026" y="1289" type="curve" smooth="yes"/>
      <point x="1102" y="1289"/>
      <point x="1162" y="1350"/>
      <point x="1162" y="1427" type="curve" smooth="yes"/>
      <point x="1162" y="1505"/>
      <point x="1104" y="1564"/>
      <point x="1026" y="1564" type="curve" smooth="yes"/>
      <point x="949" y="1564"/>
      <point x="888" y="1503"/>
      <point x="888" y="1428" type="curve" smooth="yes"/>
      <point x="888" y="1352"/>
      <point x="951" y="1289"/>
    </contour>
  </outline>
</glyph>
<glyph name="lj" format="2">
  <advance width="1200"/>
  <unicode hex="01C9"/>
  <outline>
    <contour>
      <point x="814" y="-440" type="curve" smooth="yes"/>
      <point x="1011" y="-440"/>
      <point x="1139" y="-296"/>
      <point x="1139" y="-72" type="curve" smooth="yes"/>
      <point x="1139" y="1045" type="line"/>
      <point x="999" y="1045" type="line"/>
      <point x="999" y="-76" type="line" smooth="yes"/>
      <point x="999" y="-227"/>
      <point x="934" y="-306"/>
      <point x="812" y="-306" type="curve" smooth="yes"/>
      <point x="736" y="-306"/>
      <point x="673" y="-279"/>
      <point x="603" y="-225" type="curve"/>
      <point x="527" y="-336" type="line"/>
      <point x="617" y="-405"/>
      <point x="712" y="-440"/>
    </contour>
    <contour>
      <point x="581" y="0" type="curve" smooth="yes"/>
      <point x="680" y="0"/>
      <point x="764" y="39"/>
      <point x="838" y="120" type="curve"/>
      <point x="755" y="220" type="line"/>
      <point x="698" y="159"/>
      <point x="646" y="134"/>
      <point x="579" y="134" type="curve" smooth="yes"/>
      <point x="467" y="134"/>
      <point x="410" y="202"/>
      <point x="410" y="337" type="curve" smooth="yes"/>
      <point x="410" y="1460" type="line"/>
      <point x="270" y="1460" type="line"/>
      <point x="270" y="327" type="line" smooth="yes"/>
      <point x="270" y="128"/>
      <point x="392" y="0"/>
    </contour>
    <contour>
      <point x="20" y="1338" type="line"/>
      <point x="322" y="1338" type="line"/>
      <point x="322" y="1460" type="line"/>
      <point x="20" y="1460" type="line"/>
    </contour>
    <contour>
      <point x="697" y="923" type="line"/>
      <point x="1106" y="923" type="line"/>
      <point x="1106" y="1045" type="line"/>
      <point x="697" y="1045" type="line"/>
    </contour>
    <contour>
      <point x="1044" y="1289" type="curve" smooth="yes"/>
      <point x="1120" y="1289"/>
      <point x="1180" y="1350"/>
      <point x="1180" y="1427" type="curve" smooth="yes"/>
      <point x="1180" y="1505"/>
      <point x="1122" y="1564"/>
      <point x="1044" y="1564" type="curve" smooth="yes"/>
      <point x="967" y="1564"/>
      <point x="906" y="1503"/>
      <point x="906" y="1428" type="curve" smooth="yes"/>
      <point x="906" y="1352"/>
      <point x="969" y="1289"/>
    </contour>
  </outline>
</glyph>
<glyph name="dhook" format="2">
  <advance width="1200"/>
  <unicode hex="0257"/>
  <outline>
    <contour>
      <point x="477" y="-30" type="curve" smooth="yes"/>
      <point x="618" y="-30"/>
      <point x="721" y="39"/>
      <point x="778" y="172" type="curve"/>
      <point x="784" y="172" type="line"/>
      <point x="784" y="0" type="line"/>
      <point x="910" y="0" type="line"/>
      <point x="910" y="1138" type="line" smooth="yes"/>
      <point x="910" y="1278"/>
      <point x="956" y="1340"/>
      <point x="1056" y="1340" type="curve" smooth="yes"/>
      <point x="1093" y="1340"/>
      <point x="1121" y="1331"/>
      <point x="1150" y="1311" type="curve"/>
      <point x="1208" y="1430" type="line"/>
      <point x="1161" y="1462"/>
      <point x="1110" y="1478"/>
      <point x="1048" y="1478" type="curve" smooth="yes"/>
      <point x="878" y="1478"/>
      <point x="769" y="1349"/>
      <point x="769" y="1142" type="curve" smooth="yes"/>
      <point x="769" y="897" type="line"/>
      <point x="764" y="897" type="line"/>
      <point x="701" y="1017"/>
      <point x="605" y="1075"/>
      <point x="469" y="1075" type="curve" smooth="yes"/>
      <point x="226" y="1075"/>
      <point x="70" y="871"/>
      <point x="70" y="554" type="curve" smooth="yes"/>
      <point x="70" y="493" type="line" smooth="yes"/>
      <point x="70" y="179"/>
      <point x="233" y="-30"/>
    </contour>
    <contour>
      <point x="496" y="104" type="curve" smooth="yes"/>
      <point x="322" y="104"/>
      <point x="216" y="254"/>
      <point x="216" y="500" type="curve" smooth="yes"/>
      <point x="216" y="547" type="line" smooth="yes"/>
      <point x="216" y="795"/>
      <point x="320" y="941"/>
      <point x="496" y="941" type="curve" smooth="yes"/>
      <point x="668" y="941"/>
      <point x="775" y="790"/>
      <point x="775" y="547" type="curve" smooth="yes"/>
      <point x="775" y="500" type="line" smooth="yes"/>
      <point x="775" y="256"/>
      <point x="668" y="104"/>
    </contour>
  </outline>
</glyph>
<glyph name="schwa" format="2">
  <advance width="1200"/>
  <unicode hex="0259"/>
  <outline>
    <contour>
      <point x="609" y="-30" type="curve" smooth="yes"/>
      <point x="881" y="-30"/>
      <point x="1062" y="184"/>
      <point x="1062" y="505" type="curve" smooth="yes"/>
      <point x="1062" y="548" type="line" smooth="yes"/>
      <point x="1062" y="873"/>
      <point x="889" y="1075"/>
      <point x="609" y="1075" type="curve" smooth="yes"/>
      <point x="432" y="1075"/>
      <point x="278" y="1002"/>
      <point x="164" y="865" type="curve"/>
      <point x="269" y="772" type="line"/>
      <point x="362" y="883"/>
      <point x="475" y="938"/>
      <point x="611" y="938" type="curve" smooth="yes"/>
      <point x="809" y="938"/>
      <point x="918" y="798"/>
      <point x="918" y="543" type="curve" smooth="yes"/>
      <point x="918" y="510" type="line" smooth="yes"/>
      <point x="918" y="259"/>
      <point x="800" y="104"/>
      <point x="609" y="104" type="curve" smooth="yes"/>
      <point x="426" y="104"/>
      <point x="304" y="229"/>
      <point x="304" y="419" type="curve"/>
      <point x="304" y="427" type="line"/>
      <point x="963" y="427" type="line"/>
      <point x="963" y="561" type="line"/>
      <point x="160" y="561" type="line"/>
      <point x="157" y="531"/>
      <point x="156" y="498"/>
      <point x="156" y="449" type="curve" smooth="yes"/>
      <point x="156" y="161"/>
      <point x="337" y="-30"/>
    </contour>
  </outline>
</glyph>
<glyph name="acutecomb" format="2">
  <unicode hex="0301"/>
  <anchor x="0" y="1045" name="_top"/>
  <outline>
    <contour>
      <point x="-70" y="1251" type="line"/>
      <point x="70" y="1251" type="line"/>
      <point x="276" y="1595" type="line"/>
      <point x="276" y="1605" type="line"/>
      <point x="96" y="1605" type="line"/>
      <point x="-70" y="1261" type="line"/>
    </contour>
  </outline>
</glyph>
<glyph name="circumflexcomb" format="2">
  <unicode hex="0302"/>
  <anchor x="0" y="1045" name="_top"/>
  <outline>
    <contour>
      <point x="-346" y="1251" type="line"/>
      <point x="-184" y="1251" type="line"/>
      <point x="18" y="1526" type="line"/>
      <point x="-18" y="1526" type="line"/>
      <point x="184" y="1251" type="line"/>
      <point x="346" y="1251" type="line"/>
      <point x="346" y="1261" type="line"/>
      <point x="80" y="1605" type="line"/>
      <point x="-80" y="1605" type="line"/>
      <point x="-346" y="1261" type="line"/>
    </contour>
  </outline>
</glyph>
<glyph name="macroncomb" format="2">
  <unicode hex="0304"/>
  <anchor x="0" y="1045" name="_top"/>
  <outline>
    <contour>
      <point x="-315" y="1348" type="line"/>
      <point x="315" y="1348" type="line"/>
      <point x="315" y="1486" type="line"/>
      <point x="-315" y="1486" type="line"/>
    </contour>
  </outline>
</glyph>
<glyph name="dieresiscomb" format="2">
  <unicode hex="0308"/>
  <anchor x="0" y="1045" name="_top"/>
  <outline>
    <contour>
      <point x="-200" y="1289" type="curve" smooth="yes"/>
      <point x="-125" y="1289"/>
      <point x="-67" y="1347"/>
      <point x="-67" y="1421" type="curve" smooth="yes"/>
      <point x="-67" y="1494"/>
      <point x="-126" y="1551"/>
      <point x="-200" y="1551" type="curve" smooth="yes"/>
      <point x="-272" y="1551"/>
      <point x="-331" y="1493"/>
      <point x="-331" y="1421" type="curve" smooth="yes"/>
      <point x="-331" y="1347"/>
      <point x="-273" y="1289"/>
    </contour>
    <contour>
      <point x="200" y="1289" type="curve" smooth="yes"/>
      <point x="275" y="1289"/>
      <point x="333" y="1347"/>
      <point x="333" y="1421" type="curve" smooth="yes"/>
      <point x="333" y="1494"/>
      <point x="274" y="1551"/>
      <point x="200" y="1551" type="curve" smooth="yes"/>
      <point x="128" y="1551"/>
      <point x="69" y="1493"/>
      <point x="69" y="1421" type="curve" smooth="yes"/>
      <point x="69" y="1347"/>
      <point x="127" y="1289"/>
    </contour>
  </outline>
</glyph>
<glyph name="hookabovecomb" format="2">
  <unicode hex="0309"/>
  <anchor x="0" y="1045" name="_top"/>
  <outline>
    <contour>
      <point x="-9" y="1178" type="line"/>
      <point x="166" y="1202"/>
      <point x="268" y="1294"/>
      <point x="268" y="1429" type="curve" smooth="yes"/>
      <point x="268" y="1568"/>
      <point x="165" y="1660"/>
      <point x="9" y="1660" type="curve" smooth="yes"/>
      <point x="-62" y="1660"/>
      <point x="-130" y="1646"/>
      <point x="-194" y="1620" type="curve"/>
      <point x="-153" y="1494" type="line"/>
      <point x="-101" y="1514"/>
      <point x="-48" y="1524"/>
      <point x="5" y="1524" type="curve" smooth="yes"/>
      <point x="93" y="1524"/>
      <point x="140" y="1490"/>
      <point x="140" y="1427" type="curve" smooth="yes"/>
      <point x="140" y="1360"/>
      <point x="83" y="1318"/>
      <point x="-29" y="1304" type="curve"/>
    </contour>
  </outline>
</glyph>
<glyph name="hungarumlautcomb" format="2">
  <unicode hex="030B"/>
  <anchor x="0" y="1045" name="_top"/>
  <outline>
    <contour>
      <point x="110" y="1251" type="line"/>
      <point x="250" y="1251" type="line"/>
      <point x="456" y="1595" type="line"/>
      <point x="456" y="1605" type="line"/>
      <point x="276" y="1605" type="line"/>
      <point x="110" y="1261" type="line"/>
    </contour>
    <contour>
      <point x="-250" y="1251" type="line"/>
      <point x="-110" y="1251" type="line"/>
      <point x="96" y="1595" type="line"/>
      <point x="96" y="1605" type="line"/>
      <point x="-84" y="1605" type="line"/>
      <point x="-250" y="1261" type="line"/>
    </contour>
  </outline>
</glyph>
<glyph name="horncomb" format="2">
  <unicode hex="031B"/>
  <anchor x="0" y="1432" name="_horn"/>
  <outline>
    <contour>
      <point x="-60" y="1340" type="line"/>
      <point x="4" y="1340" type="line" smooth="yes"/>
      <point x="172" y="1340"/>
      <point x="284" y="1436"/>
      <point x="284" y="1579" type="curve" smooth="yes"/>
      <point x="284" y="1641"/>
      <point x="266" y="1697"/>
      <point x="227" y="1759" type="curve"/>
      <point x="71" y="1674" type="line"/>
      <point x="102" y="1631"/>
      <point x="116" y="1595"/>
      <point x="116" y="1554" type="curve" smooth="yes"/>
      <point x="116" y="1474"/>
      <point x="63" y="1432"/>
      <point x="-36" y="1432" type="curve" smooth="yes"/>
      <point x="-60" y="1432" type="line"/>
    </contour>
  </outline>
</glyph>
<glyph name="cedillacomb" format="2">
  <unicode hex="0327"/>
  <anchor x="0" y="0" name="_bottom"/>
  <outline>
    <contour>
      <point x="11" y="-600" type="curve" smooth="yes"/>
      <point x="175" y="-600"/>
      <point x="278" y="-506"/>
      <point x="278" y="-356" type="curve" smooth="yes"/>
      <point x="278" y="-224"/>
      <point x="188" y="-127"/>
      <point x="44" y="-127" type="curve" smooth="yes"/>
      <point x="-23" y="-127"/>
      <point x="-69" y="-152"/>
      <point x="-114" y="-198" type="curve"/>
      <point x="-72" y="-198" type="line"/>
      <point x="62" y="12" type="line"/>
      <point x="-46" y="12" type="line"/>
      <point x="-180" y="-199" type="line"/>
      <point x="-93" y="-274" type="line"/>
      <point x="-61" y="-245"/>
      <point x="-18" y="-229"/>
      <point x="27" y="-229" type="curve" smooth="yes"/>
      <point x="108" y="-229"/>
      <point x="150" y="-279"/>
      <point x="150" y="-356" type="curve" smooth="yes"/>
      <point x="150" y="-436"/>
      <point x="96" y="-486"/>
      <point x="9" y="-486" type="curve" smooth="yes"/>
      <point x="-62" y="-486"/>
      <point x="-124" y="-452"/>
      <point x="-176" y="-386" type="curve"/>
      <point x="-264" y="-464" type="line"/>
      <point x="-196" y="-551"/>
      <point x="-95" y="-600"/>
    </contour>
  </outline>
</glyph>
<glyph name="ogonekcomb" format="2">
  <unicode hex="0328"/>
  <anchor x="69" y="0" name="_ogonek"/>
  <outline>
    <contour>
      <point x="-52" y="-530" type="curve" smooth="yes"/>
      <point x="8" y="-530"/>
      <point x="61" y="-517"/>
      <point x="111" y="-490" type="curve"/>
      <point x="75" y="-378" type="line"/>
      <point x="39" y="-397"/>
      <point x="4" y="-406"/>
      <point x="-40" y="-406" type="curve" smooth="yes"/>
      <point x="-123" y="-406"/>
      <point x="-181" y="-352"/>
      <point x="-181" y="-274" type="curve" smooth="yes"/>
      <point x="-181" y="-170"/>
      <point x="-106" y="-88"/>
      <point x="69" y="0" type="curve"/>
      <point x="25" y="78" type="line"/>
      <point x="-203" y="-13"/>
      <point x="-315" y="-133"/>
      <point x="-315" y="-286" type="curve" smooth="yes"/>
      <point x="-315" y="-426"/>
      <point x="-203" y="-530"/>
    </contour>
  </outline>
</glyph>
<glyph name="verticallinebelowcomb" format="2">
  <unicode hex="0329"/>
  <anchor x="0" y="0" name="_bottom"/>
  <outline>
    <contour>
      <point x="-83" y="-595" type="line"/>
      <point x="83" y="-595" type="line"/>
      <point x="83" y="-195" type="line"/>
      <point x="-83" y="-195" type="line"/>
    </contour>
  </outline>
</glyph>
<glyph name="bullet" format="2">
  <advance width="1200"/>
  <unicode hex="2022"/>
  <outline>
    <contour>
      <point x="560" y="437" type="curve" smooth="yes"/>
      <point x="692" y="437"/>
      <point x="790" y="535"/>
      <point x="790" y="667" type="curve" smooth="yes"/>
      <point x="790" y="799"/>
      <point x="692" y="897"/>
      <point x="560" y="897" type="curve" smooth="yes"/>
      <point x="428" y="897"/>
      <point x="330" y="799"/>
      <point x="330" y="667" type="curve" smooth="yes"/>
      <point x="330" y="535"/>
      <point x="428" y="437"/>
    </contour>
  </outline>
</glyph>
<glyph name="dong" format="2">
  <advance width="1200"/>
  <unicode hex="20AB"/>
  <outline>
    <contour>
      <point x="514" y="244" type="curve" smooth="yes"/>
      <point x="657" y="244"/>
      <point x="755" y="303"/>
      <point x="817" y="401" type="curve"/>
      <point x="823" y="401" type="line"/>
      <point x="823" y="244" type="line"/>
      <point x="949" y="244" type="line"/>
      <point x="949" y="1502" type="line"/>
      <point x="813" y="1502" type="line"/>
      <point x="813" y="916" type="line"/>
      <point x="807" y="916" type="line"/>
      <point x="736" y="1008"/>
      <point x="648" y="1062"/>
      <point x="506" y="1062" type="curve" smooth="yes"/>
      <point x="281" y="1062"/>
      <point x="108" y="892"/>
      <point x="108" y="662" type="curve" smooth="yes"/>
      <point x="108" y="644" type="line" smooth="yes"/>
      <point x="108" y="414"/>
      <point x="286" y="244"/>
    </contour>
    <contour>
      <point x="128" y="-80" type="line"/>
      <point x="1029" y="-80" type="line"/>
      <point x="1029" y="68" type="line"/>
      <point x="128" y="68" type="line"/>
    </contour>
    <contour>
      <point x="534" y="376" type="curve" smooth="yes"/>
      <point x="365" y="376"/>
      <point x="252" y="486"/>
      <point x="252" y="651" type="curve" smooth="yes"/>
      <point x="252" y="655" type="line" smooth="yes"/>
      <point x="252" y="820"/>
      <point x="363" y="930"/>
      <point x="534" y="930" type="curve" smooth="yes"/>
      <point x="696" y="930"/>
      <point x="814" y="816"/>
      <point x="814" y="655" type="curve" smooth="yes"/>
      <point x="814" y="651" type="line" smooth="yes"/>
      <point x="814" y="490"/>
      <point x="692" y="376"/>
    </contour>
    <contour>
      <point x="459" y="1230" type="line"/>
      <point x="1140" y="1230" type="line"/>
      <point x="1140" y="1352" type="line"/>
      <point x="459" y="1352" type="line"/>
    </contour>
  </outline>
</glyph>
<glyph name="euro" format="2">
  <advance width="1200"/>
  <unicode hex="20AC"/>
  <outline>
    <contour>
      <point x="725" y="-30" type="curve" smooth="yes"/>
      <point x="919" y="-30"/>
      <point x="1061" y="69"/>
      <point x="1136" y="257" type="curve"/>
      <point x="1008" y="314" type="line"/>
      <point x="953" y="176"/>
      <point x="863" y="110"/>
      <point x="730" y="110" type="curve" smooth="yes"/>
      <point x="489" y="110"/>
      <point x="364" y="289"/>
      <point x="364" y="643" type="curve" smooth="yes"/>
      <point x="364" y="789" type="line" smooth="yes"/>
      <point x="364" y="1143"/>
      <point x="483" y="1322"/>
      <point x="716" y="1322" type="curve" smooth="yes"/>
      <point x="857" y="1322"/>
      <point x="949" y="1259"/>
      <point x="1006" y="1123" type="curve"/>
      <point x="1134" y="1180" type="line"/>
      <point x="1057" y="1364"/>
      <point x="913" y="1462"/>
      <point x="720" y="1462" type="curve" smooth="yes"/>
      <point x="403" y="1462"/>
      <point x="218" y="1212"/>
      <point x="218" y="784" type="curve" smooth="yes"/>
      <point x="218" y="648" type="line" smooth="yes"/>
      <point x="218" y="217"/>
      <point x="402" y="-30"/>
    </contour>
    <contour>
      <point x="20" y="489" type="line"/>
      <point x="866" y="489" type="line"/>
      <point x="866" y="611" type="line"/>
      <point x="20" y="611" type="line"/>
    </contour>
    <contour>
      <point x="20" y="821" type="line"/>
      <point x="866" y="821" type="line"/>
      <point x="866" y="943" type="line"/>
      <point x="20" y="943" type="line"/>
    </contour>
  </outline>
</glyph>
<glyph name="leftArrow" format="2">
  <advance width="1200"/>
  <unicode hex="2190"/>
  <outline>
    <contour>
      <point x="590" y="89" type="line"/>
      <point x="686" y="180" type="line"/>
      <point x="271" y="614" type="line"/>
      <point x="271" y="638" type="line"/>
      <point x="686" y="1072" type="line"/>
      <point x="590" y="1163" type="line"/>
      <point x="100" y="626" type="line"/>
    </contour>
    <contour>
      <point x="627" y="557" type="line"/>
      <point x="1132" y="557" type="line"/>
      <point x="1132" y="695" type="line"/>
      <point x="627" y="695" type="line"/>
      <point x="199" y="685" type="line"/>
      <point x="199" y="567" type="line"/>
    </contour>
  </outline>
</glyph>
<glyph name="downArrow" format="2">
  <advance width="1200"/>
  <unicode hex="2193"/>
  <outline>
    <contour>
      <point x="600" y="45" type="line"/>
      <point x="1137" y="535" type="line"/>
      <point x="1046" y="631" type="line"/>
      <point x="612" y="216" type="line"/>
      <point x="588" y="216" type="line"/>
      <point x="154" y="631" type="line"/>
      <point x="63" y="535" type="line"/>
    </contour>
    <contour>
      <point x="541" y="144" type="line"/>
      <point x="659" y="144" type="line"/>
      <point x="671" y="572" type="line"/>
      <point x="671" y="1207" type="line"/>
      <point x="529" y="1207" type="line"/>
      <point x="529" y="572" type="line"/>
    </contour>
  </outline>
</glyph>
<glyph name="minus" format="2">
  <advance width="1200"/>
  <unicode hex="2212"/>
  <outline>
    <contour>
      <point x="164" y="553" type="line"/>
      <point x="1036" y="553" type="line"/>
      <point x="1036" y="699" type="line"/>
      <point x="164" y="699" type="line"/>
    </contour>
  </outline>
</glyph>
<glyph name="divisionslash" format="2">
  <advance width="1200"/>
  <unicode hex="2215"/>
  <outline>
    <contour>
      <point x="60" y="-30" type="line"/>
      <point x="240" y="-30" type="line"/>
      <point x="1140" y="1460" type="line"/>
      <point x="960" y="1460" type="line"/>
    </contour>
  </outline>
</glyph>
<glyph name="proportion" format="2">
  <advance width="1200"/>
  <unicode hex="2237"/>
  <outline>
    <contour>
      <point x="878" y="842" type="curve" smooth="yes"/>
      <point x="959" y="842"/>
      <point x="1020" y="902"/>
      <point x="1020" y="985" type="curve" smooth="yes"/>
      <point x="1020" y="1068"/>
      <point x="959" y="1128"/>
      <point x="878" y="1128" type="curve" smooth="yes"/>
      <point x="797" y="1128"/>
      <point x="736" y="1068"/>
      <point x="736" y="985" type="curve" smooth="yes"/>
      <point x="736" y="902"/>
      <point x="797" y="842"/>
    </contour>
    <contour>
      <point x="322" y="124" type="curve" smooth="yes"/>
      <point x="403" y="124"/>
      <point x="464" y="184"/>
      <point x="464" y="267" type="curve" smooth="yes"/>
      <point x="464" y="350"/>
      <point x="403" y="410"/>
      <point x="322" y="410" type="curve" smooth="yes"/>
      <point x="241" y="410"/>
      <point x="180" y="350"/>
      <point x="180" y="267" type="curve" smooth="yes"/>
      <point x="180" y="184"/>
      <point x="241" y="124"/>
    </contour>
    <contour>
      <point x="878" y="124" type="curve" smooth="yes"/>
      <point x="959" y="124"/>
      <point x="1020" y="184"/>
      <point x="1020" y="267" type="curve" smooth="yes"/>
      <point x="1020" y="350"/>
      <point x="959" y="410"/>
      <point x="878" y="410" type="curve" smooth="yes"/>
      <point x="797" y="410"/>
      <point x="736" y="350"/>
      <point x="736" y="267" type="curve" smooth="yes"/>
      <point x="736" y="184"/>
      <point x="797" y="124"/>
    </contour>
    <contour>
      <point x="322" y="842" type="curve" smooth="yes"/>
      <point x="403" y="842"/>
      <point x="464" y="902"/>
      <point x="464" y="985" type="curve" smooth="yes"/>
      <point x="464" y="1068"/>
      <point x="403" y="1128"/>
      <point x="322" y="1128" type="curve" smooth="yes"/>
      <point x="241" y="1128"/>
      <point x="180" y="1068"/>
      <point x="180" y="985" type="curve" smooth="yes"/>
      <point x="180" y="902"/>
      <point x="241" y="842"/>
    </contour>
  </outline>
</glyph>
<glyph name="lessequal" format="2">
  <advance width="1200"/>
  <unicode hex="2264"/>
  <outline>
    <contour>
      <point x="1036" y="238" type="line"/>
      <point x="1036" y="388" type="line"/>
      <point x="502" y="598" type="line"/>
      <point x="327" y="660" type="line"/>
      <point x="327" y="668" type="line"/>
      <point x="502" y="730" type="line"/>
      <point x="1036" y="940" type="line"/>
      <point x="1036" y="1090" type="line"/>
      <point x="164" y="738" type="line"/>
      <point x="164" y="590" type="line"/>
    </contour>
    <contour>
      <point x="164" y="0" type="line"/>
      <point x="1036" y="0" type="line"/>
      <point x="1036" y="142" type="line"/>
      <point x="164" y="142" type="line"/>
    </contour>
  </outline>
</glyph>
<glyph name="boxHeavyHorizontal" format="2">
  <advance width="1200"/>
  <unicode hex="2501"/>
  <outline>
    <contour>
      <point x="-70" y="518" type="line"/>
      <point x="1270" y="518" type="line"/>
      <point x="1270" y="770" type="line"/>
      <point x="-70" y="770" type="line"/>
    </contour>
  </outline>
</glyph>
<glyph name="boxHeavyTripleDashHorizontal" format="2">
  <advance width="1200"/>
  <unicode hex="2505"/>
  <outline>
    <contour>
      <point x="867" y="518" type="line"/>
      <point x="1133" y="518" type="line"/>
      <point x="1133" y="770" type="line"/>
      <point x="867" y="770" type="line"/>
    </contour>
    <contour>
      <point x="67" y="518" type="line"/>
      <point x="333" y="518" type="line"/>
      <point x="333" y="770" type="line"/>
      <point x="67" y="770" type="line"/>
    </contour>
    <contour>
      <point x="467" y="518" type="line"/>
      <point x="733" y="518" type="line"/>
      <point x="733" y="770" type="line"/>
      <point x="467" y="770" type="line"/>
    </contour>
  </outline>
</glyph>
<glyph name="boxLightQuadrupleDashHorizontal" format="2">
  <advance width="1200"/>
  <unicode hex="2508"/>
  <outline>
    <contour>
      <point x="938" y="574" type="line"/>
      <point x="1163" y="574" type="line"/>
      <point x="1163" y="714" type="line"/>
      <point x="938" y="714" type="line"/>
    </contour>
    <contour>
      <point x="38" y="574" type="line"/>
      <point x="263" y="574" type="line"/>
      <point x="263" y="714" type="line"/>
      <point x="38" y="714" type="line"/>
    </contour>
    <contour>
      <point x="338" y="574" type="line"/>
      <point x="563" y="574" type="line"/>
      <point x="563" y="714" type="line"/>
      <point x="338" y="714" type="line"/>
    </contour>
    <contour>
      <point x="638" y="574" type="line"/>
      <point x="863" y="574" type="line"/>
      <point x="863" y="714" type="line"/>
      <point x="638" y="714" type="line"/>
    </contour>
  </outline>
</glyph>
<glyph name="boxHeavyQuadrupleDashHorizontal" format="2">
  <advance width="1200"/>
  <unicode hex="2509"/>
  <outline>
    <contour>
      <point x="938" y="518" type="line"/>
      <point x="1163" y="518" type="line"/>
      <point x="1163" y="770" type="line"/>
      <point x="938" y="770" type="line"/>
    </contour>
    <contour>
      <point x="38" y="518" type="line"/>
      <point x="263" y="518" type="line"/>
      <point x="263" y="770" type="line"/>
      <point x="38" y="770" type="line"/>
    </contour>
    <contour>
      <point x="338" y="518" type="line"/>
      <point x="563" y="518" type="line"/>
      <point x="563" y="770" type="line"/>
      <point x="338" y="770" type="line"/>
    </contour>
    <contour>
      <point x="638" y="518" type="line"/>
      <point x="863" y="518" type="line"/>
      <point x="863" y="770" type="line"/>
      <point x="638" y="770" type="line"/>
    </contour>
  </outline>
</glyph>
<glyph name="boxDownLightAndRightHeavy" format="2">
  <advance width="1200"/>
  <unicode hex="250D"/>
  <outline>
    <contour>
      <point x="530" y="-656" type="line"/>
      <point x="670" y="-656" type="line"/>
      <point x="670" y="518" type="line"/>
      <point x="1270" y="518" type="line"/>
      <point x="1270" y="770" type="line"/>
      <point x="530" y="770" type="line"/>
    </contour>
  </outline>
</glyph>
<glyph name="boxDownLightAndLeftHeavy" format="2">
  <advance width="1200"/>
  <unicode hex="2511"/>
  <outline>
    <contour>
      <point x="530" y="-656" type="line"/>
      <point x="670" y="-656" type="line"/>
      <point x="670" y="770" type="line"/>
      <point x="-70" y="770" type="line"/>
      <point x="-70" y="518" type="line"/>
      <point x="530" y="518" type="line"/>
    </contour>
  </outline>
</glyph>
<glyph name="boxLightUpAndLeft" format="2">
  <advance width="1200"/>
  <unicode hex="2518"/>
  <outline>
    <contour>
      <point x="-70" y="574" type="line"/>
      <point x="670" y="574" type="line"/>
      <point x="670" y="1944" type="line"/>
      <point x="530" y="1944" type="line"/>
      <point x="530" y="714" type="line"/>
      <point x="-70" y="714" type="line"/>
    </contour>
  </outline>
</glyph>
<glyph name="boxUpLightAndLeftDownHeavy" format="2">
  <advance width="1200"/>
  <unicode hex="252A"/>
  <outline>
    <contour>
      <point x="474" y="-656" type="line"/>
      <point x="726" y="-656" type="line"/>
      <point x="726" y="770" type="line"/>
      <point x="670" y="770" type="line"/>
      <point x="670" y="1944" type="line"/>
      <point x="530" y="1944" type="line"/>
      <point x="530" y="770" type="line"/>
      <point x="-70" y="770" type="line"/>
      <point x="-70" y="518" type="line"/>
      <point x="474" y="518" type="line"/>
    </contour>
  </outline>
</glyph>
<glyph name="boxRightHeavyAndLeftDownLight" format="2">
  <advance width="1200"/>
  <unicode hex="252E"/>
  <outline>
    <contour>
      <point x="530" y="-656" type="line"/>
      <point x="670" y="-656" type="line"/>
      <point x="670" y="518" type="line"/>
      <point x="1270" y="518" type="line"/>
      <point x="1270" y="770" type="line"/>
      <point x="530" y="770" type="line"/>
      <point x="530" y="714" type="line"/>
      <point x="-70" y="714" type="line"/>
      <point x="-70" y="574" type="line"/>
      <point x="530" y="574" type="line"/>
    </contour>
  </outline>
</glyph>
<glyph name="boxRightLightAndLeftDownHeavy" format="2">
  <advance width="1200"/>
  <unicode hex="2531"/>
  <outline>
    <contour>
      <point x="474" y="-656" type="line"/>
      <point x="726" y="-656" type="line"/>
      <point x="726" y="574" type="line"/>
      <point x="1270" y="574" type="line"/>
      <point x="1270" y="714" type="line"/>
      <point x="726" y="714" type="line"/>
      <point x="726" y="770" type="line"/>
      <point x="-70" y="770" type="line"/>
      <point x="-70" y="518" type="line"/>
      <point x="474" y="518" type="line"/>
    </contour>
  </outline>
</glyph>
<glyph name="boxRightHeavyAndLeftUpLight" format="2">
  <advance width="1200"/>
  <unicode hex="2536"/>
  <outline>
    <contour>
      <point x="530" y="518" type="line"/>
      <point x="1270" y="518" type="line"/>
      <point x="1270" y="770" type="line"/>
      <point x="670" y="770" type="line"/>
      <point x="670" y="1944" type="line"/>
      <point x="530" y="1944" type="line"/>
      <point x="530" y="714" type="line"/>
      <point x="-70" y="714" type="line"/>
      <point x="-70" y="574" type="line"/>
      <point x="530" y="574" type="line"/>
    </contour>
  </outline>
</glyph>
<glyph name="boxUpLightAndHorizontalHeavy" format="2">
  <advance width="1200"/>
  <unicode hex="2537"/>
  <outline>
    <contour>
      <point x="-70" y="518" type="line"/>
      <point x="1270" y="518" type="line"/>
      <point x="1270" y="770" type="line"/>
      <point x="670" y="770" type="line"/>
      <point x="670" y="1944" type="line"/>
      <point x="530" y="1944" type="line"/>
      <point x="530" y="770" type="line"/>
      <point x="-70" y="770" type="line"/>
    </contour>
  </outline>
</glyph>
<glyph name="boxUpHeavyAndHorizontalLight" format="2">
  <advance width="1200"/>
  <unicode hex="2538"/>
  <outline>
    <contour>
      <point x="-70" y="574" type="line"/>
      <point x="1270" y="574" type="line"/>
      <point x="1270" y="714" type="line"/>
      <point x="726" y="714" type="line"/>
      <point x="726" y="1944" type="line"/>
      <point x="474" y="1944" type="line"/>
      <point x="474" y="714" type="line"/>
      <point x="-70" y="714" type="line"/>
    </contour>
  </outline>
</glyph>
<glyph name="boxRightLightAndLeftVerticalHeavy" format="2">
  <advance width="1200"/>
  <unicode hex="2549"/>
  <outline>
    <contour>
      <point x="474" y="-656" type="line"/>
      <point x="726" y="-656" type="line"/>
      <point x="726" y="574" type="line"/>
      <point x="1270" y="574" type="line"/>
      <point x="1270" y="714" type="line"/>
      <point x="726" y="714" type="line"/>
      <point x="726" y="1944" type="line"/>
      <point x="474" y="1944" type="line"/>
      <point x="474" y="770" type="line"/>
      <point x="-70" y="770" type="line"/>
      <point x="-70" y="518" type="line"/>
      <point x="474" y="518" type="line"/>
    </contour>
  </outline>
</glyph>
<glyph name="boxHeavyDoubleDashVertical" format="2">
  <advance width="1200"/>
  <unicode hex="254F"/>
  <outline>
    <contour>
      <point x="474" y="957" type="line"/>
      <point x="726" y="957" type="line"/>
      <point x="726" y="1582" type="line"/>
      <point x="474" y="1582" type="line"/>
    </contour>
    <contour>
      <point x="474" y="-293" type="line"/>
      <point x="726" y="-293" type="line"/>
      <point x="726" y="332" type="line"/>
      <point x="474" y="332" type="line"/>
    </contour>
  </outline>
</glyph>
<glyph name="boxDoubleDownAndRight" format="2">
  <advance width="1200"/>
  <unicode hex="2554"/>
  <outline>
    <contour>
      <point x="390" y="-656" type="line"/>
      <point x="530" y="-656" type="line"/>
      <point x="530" y="714" type="line"/>
      <point x="1270" y="714" type="line"/>
      <point x="1270" y="854" type="line"/>
      <point x="390" y="854" type="line"/>
    </contour>
    <contour>
      <point x="670" y="-656" type="line"/>
      <point x="810" y="-656" type="line"/>
      <point x="810" y="434" type="line"/>
      <point x="1270" y="434" type="line"/>
      <point x="1270" y="574" type="line"/>
      <point x="670" y="574" type="line"/>
    </contour>
  </outline>
</glyph>
<glyph name="boxDownSingleAndLeftDouble" format="2">
  <advance width="1200"/>
  <unicode hex="2555"/>
  <outline>
    <contour>
      <point x="530" y="-656" type="line"/>
      <point x="670" y="-656" type="line"/>
      <point x="670" y="854" type="line"/>
      <point x="-70" y="854" type="line"/>
      <point x="-70" y="714" type="line"/>
      <point x="530" y="714" type="line"/>
      <point x="530" y="574" type="line"/>
      <point x="-70" y="574" type="line"/>
      <point x="-70" y="434" type="line"/>
      <point x="530" y="434" type="line"/>
    </contour>
  </outline>
</glyph>
<glyph name="boxDownDoubleAndLeftSingle" format="2">
  <advance width="1200"/>
  <unicode hex="2556"/>
  <outline>
    <contour>
      <point x="390" y="-656" type="line"/>
      <point x="530" y="-656" type="line"/>
      <point x="530" y="574" type="line"/>
      <point x="670" y="574" type="line"/>
      <point x="670" y="-656" type="line"/>
      <point x="810" y="-656" type="line"/>
      <point x="810" y="714" type="line"/>
      <point x="-70" y="714" type="line"/>
      <point x="-70" y="574" type="line"/>
      <point x="390" y="574" type="line"/>
    </contour>
  </outline>
</glyph>
<glyph name="boxLightRight" format="2">
  <advance width="1200"/>
  <unicode hex="2576"/>
  <outline>
    <contour>
      <point x="530" y="574" type="line"/>
      <point x="1270" y="574" type="line"/>
      <point x="1270" y="714" type="line"/>
      <point x="530" y="714" type="line"/>
    </contour>
  </outline>
</glyph>
<glyph name="boxLightDown" format="2">
  <advance width="1200"/>
  <unicode hex="2577"/>
  <outline>
    <contour>
      <point x="530" y="-656" type="line"/>
      <point x="670" y="-656" type="line"/>
      <point x="670" y="714" type="line"/>
      <point x="530" y="714" type="line"/>
    </contour>
  </outline>
</glyph>
<glyph name="boxHeavyLeft" format="2">
  <advance width="1200"/>
  <unicode hex="2578"/>
  <outline>
    <contour>
      <point x="-70" y="518" type="line"/>
      <point x="670" y="518" type="line"/>
      <point x="670" y="770" type="line"/>
      <point x="-70" y="770" type="line"/>
    </contour>
  </outline>
</glyph>
<glyph name="boxHeavyDown" format="2">
  <advance width="1200"/>
  <unicode hex="257B"/>
  <outline>
    <contour>
      <point x="474" y="-656" type="line"/>
      <point x="726" y="-656" type="line"/>
      <point x="726" y="714" type="line"/>
      <point x="474" y="714" type="line"/>
    </contour>
  </outline>
</glyph>
<glyph name="boxHeavyLeftAndLightRight" format="2">
  <advance width="1200"/>
  <unicode hex="257E"/>
  <outline>
    <contour>
      <point x="-70" y="518" type="line"/>
      <point x="670" y="518" type="line"/>
      <point x="670" y="574" type="line"/>
      <point x="1270" y="574" type="line"/>
      <point x="1270" y="714" type="line"/>
      <point x="670" y="714" type="line"/>
      <point x="670" y="770" type="line"/>
      <point x="-70" y="770" type="line"/>
    </contour>
  </outline>
</glyph>
<glyph name="shademedium" format="2">
  <advance width="1200"/>
  <unicode hex="2592"/>
  <outline>
    <contour>
      <point x="8" y="1179" type="line"/>
      <point x="190" y="1179" type="line"/>
      <point x="190" y="1361" type="line"/>
      <point x="8" y="1361" type="line"/>
    </contour>
    <contour>
      <point x="8" y="821" type="line"/>
      <point x="190" y="821" type="line"/>
      <point x="190" y="1003" type="line"/>
      <point x="8" y="1003" type="line"/>
    </contour>
    <contour>
      <point x="8" y="464" type="line"/>
      <point x="190" y="464" type="line"/>
      <point x="190" y="646" type="line"/>
      <point x="8" y="646" type="line"/>
    </contour>
    <contour>
      <point x="8" y="106" type="line"/>
      <point x="190" y="106" type="line"/>
      <point x="190" y="288" type="line"/>
      <point x="8" y="288" type="line"/>
    </contour>
    <contour>
      <point x="8" y="-250" type="line"/>
      <point x="190" y="-250" type="line"/>
      <point x="190" y="-68" type="line"/>
      <point x="8" y="-68" type="line"/>
    </contour>
    <contour>
      <point x="209" y="1714" type="line"/>
      <point x="391" y="1714" type="line"/>
      <point x="391" y="1896" type="line"/>
      <point x="209" y="1896" type="line"/>
    </contour>
    <contour>
      <point x="209" y="1359" type="line"/>
      <point x="391" y="1359" type="line"/>
      <point x="391" y="1541" type="line"/>
      <point x="209" y="1541" type="line"/>
    </contour>
    <contour>
      <point x="209" y="1001" type="line"/>
      <point x="391" y="1001" type="line"/>
      <point x="391" y="1183" type="line"/>
      <point x="209" y="1183" type="line"/>
    </contour>
    <contour>
      <point x="209" y="644" type="line"/>
      <point x="391" y="644" type="line"/>
      <point x="391" y="826" type="line"/>
      <point x="209" y="826" type="line"/>
    </contour>
    <contour>
      <point x="209" y="286" type="line"/>
      <point x="391" y="286" type="line"/>
      <point x="391" y="468" type="line"/>
      <point x="209" y="468" type="line"/>
    </contour>
    <contour>
      <point x="209" y="-72" type="line"/>
      <point x="391" y="-72" type="line"/>
      <point x="391" y="110" type="line"/>
      <point x="209" y="110" type="line"/>
    </contour>
    <contour>
      <point x="209" y="-430" type="line"/>
      <point x="391" y="-430" type="line"/>
      <point x="391" y="-248" type="line"/>
      <point x="209" y="-248" type="line"/>
    </contour>
    <contour>
      <point x="408" y="1536" type="line"/>
      <point x="590" y="1536" type="line"/>
      <point x="590" y="1718" type="line"/>
      <point x="408" y="1718" type="line"/>
    </contour>
    <contour>
      <point x="409" y="1179" type="line"/>
      <point x="591" y="1179" type="line"/>
      <point x="591" y="1361" type="line"/>
      <point x="409" y="1361" type="line"/>
    </contour>
    <contour>
      <point x="409" y="821" type="line"/>
      <point x="591" y="821" type="line"/>
      <point x="591" y="1003" type="line"/>
      <point x="409" y="1003" type="line"/>
    </contour>
    <contour>
      <point x="409" y="464" type="line"/>
      <point x="591" y="464" type="line"/>
      <point x="591" y="646" type="line"/>
      <point x="409" y="646" type="line"/>
    </contour>
    <contour>
      <point x="409" y="107" type="line"/>
      <point x="591" y="107" type="line"/>
      <point x="591" y="289" type="line"/>
      <point x="409" y="289" type="line"/>
    </contour>
    <contour>
      <point x="409" y="-251" type="line"/>
      <point x="591" y="-251" type="line"/>
      <point x="591" y="-69" type="line"/>
      <point x="409" y="-69" type="line"/>
    </contour>
    <contour>
      <point x="609" y="1714" type="line"/>
      <point x="791" y="1714" type="line"/>
      <point x="791" y="1896" type="line"/>
      <point x="609" y="1896" type="line"/>
    </contour>
    <contour>
      <point x="610" y="1359" type="line"/>
      <point x="792" y="1359" type="line"/>
      <point x="792" y="1541" type="line"/>
      <point x="610" y="1541" type="line"/>
    </contour>
    <contour>
      <point x="610" y="1001" type="line"/>
      <point x="792" y="1001" type="line"/>
      <point x="792" y="1183" type="line"/>
      <point x="610" y="1183" type="line"/>
    </contour>
    <contour>
      <point x="610" y="643" type="line"/>
      <point x="792" y="643" type="line"/>
      <point x="792" y="825" type="line"/>
      <point x="610" y="825" type="line"/>
    </contour>
    <contour>
      <point x="610" y="286" type="line"/>
      <point x="792" y="286" type="line"/>
      <point x="792" y="468" type="line"/>
      <point x="610" y="468" type="line"/>
    </contour>
    <contour>
      <point x="610" y="-73" type="line"/>
      <point x="792" y="-73" type="line"/>
      <point x="792" y="109" type="line"/>
      <point x="610" y="109" type="line"/>
    </contour>
    <contour>
      <point x="610" y="-430" type="line"/>
      <point x="792" y="-430" type="line"/>
      <point x="792" y="-248" type="line"/>
      <point x="610" y="-248" type="line"/>
    </contour>
    <contour>
      <point x="809" y="1536" type="line"/>
      <point x="991" y="1536" type="line"/>
      <point x="991" y="1718" type="line"/>
      <point x="809" y="1718" type="line"/>
    </contour>
    <contour>
      <point x="809" y="1179" type="line"/>
      <point x="991" y="1179" type="line"/>
      <point x="991" y="1361" type="line"/>
      <point x="809" y="1361" type="line"/>
    </contour>
    <contour>
      <point x="809" y="821" type="line"/>
      <point x="991" y="821" type="line"/>
      <point x="991" y="1003" type="line"/>
      <point x="809" y="1003" type="line"/>
    </contour>
    <contour>
      <point x="809" y="464" type="line"/>
      <point x="991" y="464" type="line"/>
      <point x="991" y="646" type="line"/>
      <point x="809" y="646" type="line"/>
    </contour>
    <contour>
      <point x="809" y="107" type="line"/>
      <point x="991" y="107" type="line"/>
      <point x="991" y="289" type="line"/>
      <point x="809" y="289" type="line"/>
    </contour>
    <contour>
      <point x="809" y="-251" type="line"/>
      <point x="991" y="-251" type="line"/>
      <point x="991" y="-69" type="line"/>
      <point x="809" y="-69" type="line"/>
    </contour>
    <contour>
      <point x="1010" y="1714" type="line"/>
      <point x="1192" y="1714" type="line"/>
      <point x="1192" y="1896" type="line"/>
      <point x="1010" y="1896" type="line"/>
    </contour>
    <contour>
      <point x="1010" y="1359" type="line"/>
      <point x="1192" y="1359" type="line"/>
      <point x="1192" y="1541" type="line"/>
      <point x="1010" y="1541" type="line"/>
    </contour>
    <contour>
      <point x="1010" y="1001" type="line"/>
      <point x="1192" y="1001" type="line"/>
      <point x="1192" y="1183" type="line"/>
      <point x="1010" y="1183" type="line"/>
    </contour>
    <contour>
      <point x="1010" y="643" type="line"/>
      <point x="1192" y="643" type="line"/>
      <point x="1192" y="825" type="line"/>
      <point x="1010" y="825" type="line"/>
    </contour>
    <contour>
      <point x="1010" y="286" type="line"/>
      <point x="1192" y="286" type="line"/>
      <point x="1192" y="468" type="line"/>
      <point x="1010" y="468" type="line"/>
    </contour>
    <contour>
      <point x="1010" y="-73" type="line"/>
      <point x="1192" y="-73" type="line"/>
      <point x="1192" y="109" type="line"/>
      <point x="1010" y="109" type="line"/>
    </contour>
    <contour>
      <point x="1010" y="-430" type="line"/>
      <point x="1192" y="-430" type="line"/>
      <point x="1192" y="-248" type="line"/>
      <point x="1010" y="-248" type="line"/>
    </contour>
    <contour>
      <point x="8" y="-608" type="line"/>
      <point x="190" y="-608" type="line"/>
      <point x="190" y="-426" type="line"/>
      <point x="8" y="-426" type="line"/>
    </contour>
    <contour>
      <point x="409" y="-608" type="line"/>
      <point x="591" y="-608" type="line"/>
      <point x="591" y="-426" type="line"/>
      <point x="409" y="-426" type="line"/>
    </contour>
    <contour>
      <point x="809" y="-608" type="line"/>
      <point x="991" y="-608" type="line"/>
      <point x="991" y="-426" type="line"/>
      <point x="809" y="-426" type="line"/>
    </contour>
    <contour>
      <point x="8" y="1536" type="line"/>
      <point x="190" y="1536" type="line"/>
      <point x="190" y="1718" type="line"/>
      <point x="8" y="1718" type="line"/>
    </contour>
  </outline>
</glyph>
<glyph name="blackSquare" format="2">
  <advance width="1200"/>
  <unicode hex="25A0"/>
  <outline>
    <contour>
      <point x="142" y="258" type="line"/>
      <point x="1058" y="258" type="line"/>
      <point x="1058" y="1174" type="line"/>
      <point x="142" y="1174" type="line"/>
    </contour>
  </outline>
</glyph>
<glyph name="blackSmallSquare" format="2">
  <advance width="1200"/>
  <unicode hex="25AA"/>
  <outline>
    <contour>
      <point x="344" y="327" type="line"/>
      <point x="856" y="327" type="line"/>
      <point x="856" y="839" type="line"/>
      <point x="344" y="839" type="line"/>
    </contour>
  </outline>
</glyph>
<glyph name="dottedCircle" format="2">
  <advance width="1200"/>
  <unicode hex="25CC"/>
  <anchor x="600" y="0" name="bottom"/>
  <anchor x="958" y="1045" name="horn"/>
  <anchor x="815" y="0" name="ogonek"/>
  <anchor x="600" y="1045" name="top"/>
  <outline>
    <contour>
      <point x="1030" y="438" type="curve" smooth="yes"/>
      <point x="1070" y="438"/>
      <point x="1102" y="470"/>
      <point x="1102" y="510" type="curve" smooth="yes"/>
      <point x="1102" y="550"/>
      <point x="1070" y="582"/>
      <point x="1030" y="582" type="curve" smooth="yes"/>
      <point x="990" y="582"/>
      <point x="958" y="550"/>
      <point x="958" y="510" type="curve" smooth="yes"/>
      <point x="958" y="470"/>
      <point x="990" y="438"/>
    </contour>
    <contour>
      <point x="228" y="223" type="curve" smooth="yes"/>
      <point x="267" y="223"/>
      <point x="299" y="255"/>
      <point x="299" y="295" type="curve" smooth="yes"/>
      <point x="299" y="335"/>
      <point x="267" y="367"/>
      <point x="228" y="367" type="curve" smooth="yes"/>
      <point x="188" y="367"/>
      <point x="156" y="335"/>
      <point x="156" y="295" type="curve" smooth="yes"/>
      <point x="156" y="255"/>
      <point x="188" y="223"/>
    </contour>
    <contour>
      <point x="385" y="66" type="curve" smooth="yes"/>
      <point x="425" y="66"/>
      <point x="457" y="98"/>
      <point x="457" y="138" type="curve" smooth="yes"/>
      <point x="457" y="177"/>
      <point x="425" y="209"/>
      <point x="385" y="209" type="curve" smooth="yes"/>
      <point x="345" y="209"/>
      <point x="313" y="177"/>
      <point x="313" y="138" type="curve" smooth="yes"/>
      <point x="313" y="98"/>
      <point x="345" y="66"/>
    </contour>
    <contour>
      <point x="170" y="438" type="curve" smooth="yes"/>
      <point x="210" y="438"/>
      <point x="242" y="470"/>
      <point x="242" y="510" type="curve" smooth="yes"/>
      <point x="242" y="550"/>
      <point x="210" y="582"/>
      <point x="170" y="582" type="curve" smooth="yes"/>
      <point x="130" y="582"/>
      <point x="98" y="550"/>
      <point x="98" y="510" type="curve" smooth="yes"/>
      <point x="98" y="470"/>
      <point x="130" y="438"/>
    </contour>
    <contour>
      <point x="600" y="8" type="curve" smooth="yes"/>
      <point x="640" y="8"/>
      <point x="672" y="40"/>
      <point x="672" y="80" type="curve" smooth="yes"/>
      <point x="672" y="120"/>
      <point x="640" y="152"/>
      <point x="600" y="152" type="curve" smooth="yes"/>
      <point x="560" y="152"/>
      <point x="528" y="120"/>
      <point x="528" y="80" type="curve" smooth="yes"/>
      <point x="528" y="40"/>
      <point x="560" y="8"/>
    </contour>
    <contour>
      <point x="228" y="653" type="curve" smooth="yes"/>
      <point x="267" y="653"/>
      <point x="299" y="685"/>
      <point x="299" y="725" type="curve" smooth="yes"/>
      <point x="299" y="765"/>
      <point x="267" y="797"/>
      <point x="228" y="797" type="curve" smooth="yes"/>
      <point x="188" y="797"/>
      <point x="156" y="765"/>
      <point x="156" y="725" type="curve" smooth="yes"/>
      <point x="156" y="685"/>
      <point x="188" y="653"/>
    </contour>
    <contour>
      <point x="815" y="66" type="curve" smooth="yes"/>
      <point x="855" y="66"/>
      <point x="887" y="98"/>
      <point x="887" y="138" type="curve" smooth="yes"/>
      <point x="887" y="177"/>
      <point x="855" y="209"/>
      <point x="815" y="209" type="curve" smooth="yes"/>
      <point x="775" y="209"/>
      <point x="743" y="177"/>
      <point x="743" y="138" type="curve" smooth="yes"/>
      <point x="743" y="98"/>
      <point x="775" y="66"/>
    </contour>
    <contour>
      <point x="385" y="811" type="curve" smooth="yes"/>
      <point x="425" y="811"/>
      <point x="457" y="843"/>
      <point x="457" y="882" type="curve" smooth="yes"/>
      <point x="457" y="922"/>
      <point x="425" y="954"/>
      <point x="385" y="954" type="curve" smooth="yes"/>
      <point x="345" y="954"/>
      <point x="313" y="922"/>
      <point x="313" y="882" type="curve" smooth="yes"/>
      <point x="313" y="843"/>
      <point x="345" y="811"/>
    </contour>
    <contour>
      <point x="972" y="223" type="curve" smooth="yes"/>
      <point x="1012" y="223"/>
      <point x="1044" y="255"/>
      <point x="1044" y="295" type="curve" smooth="yes"/>
      <point x="1044" y="335"/>
      <point x="1012" y="367"/>
      <point x="972" y="367" type="curve" smooth="yes"/>
      <point x="933" y="367"/>
      <point x="901" y="335"/>
      <point x="901" y="295" type="curve" smooth="yes"/>
      <point x="901" y="255"/>
      <point x="933" y="223"/>
    </contour>
    <contour>
      <point x="600" y="868" type="curve" smooth="yes"/>
      <point x="640" y="868"/>
      <point x="672" y="900"/>
      <point x="672" y="940" type="curve" smooth="yes"/>
      <point x="672" y="980"/>
      <point x="640" y="1012"/>
      <point x="600" y="1012" type="curve" smooth="yes"/>
      <point x="560" y="1012"/>
      <point x="528" y="980"/>
      <point x="528" y="940" type="curve" smooth="yes"/>
      <point x="528" y="900"/>
      <point x="560" y="868"/>
    </contour>
    <contour>
      <point x="972" y="653" type="curve" smooth="yes"/>
      <point x="1012" y="653"/>
      <point x="1044" y="685"/>
      <point x="1044" y="725" type="curve" smooth="yes"/>
      <point x="1044" y="765"/>
      <point x="1012" y="797"/>
      <point x="972" y="797" type="curve" smooth="yes"/>
      <point x="933" y="797"/>
      <point x="901" y="765"/>
      <point x="901" y="725" type="curve" smooth="yes"/>
      <point x="901" y="685"/>
      <point x="933" y="653"/>
    </contour>
    <contour>
      <point x="815" y="811" type="curve" smooth="yes"/>
      <point x="855" y="811"/>
      <point x="887" y="843"/>
      <point x="887" y="882" type="curve" smooth="yes"/>
      <point x="887" y="922"/>
      <point x="855" y="954"/>
      <point x="815" y="954" type="curve" smooth="yes"/>
      <point x="775" y="954"/>
      <point x="743" y="922"/>
      <point x="743" y="882" type="curve" smooth="yes"/>
      <point x="743" y="843"/>
      <point x="775" y="811"/>
    </contour>
  </outline>
</glyph>
<glyph name="inverseWhiteCircle" format="2">
  <advance width="1200"/>
  <unicode hex="25D9"/>
  <outline>
    <contour>
      <point x="46" y="162" type="line"/>
      <point x="1154" y="162" type="line"/>
      <point x="1154" y="1270" type="line"/>
      <point x="46" y="1270" type="line"/>
    </contour>
    <contour>
      <point x="600" y="188" type="curve" smooth="yes"/>
      <point x="300" y="188"/>
      <point x="72" y="416"/>
      <point x="72" y="716" type="curve" smooth="yes"/>
      <point x="72" y="1016"/>
      <point x="300" y="1244"/>
      <point x="600" y="1244" type="curve" smooth="yes"/>
      <point x="901" y="1244"/>
      <point x="1128" y="1017"/>
      <point x="1128" y="716" type="curve" smooth="yes"/>
      <point x="1128" y="416"/>
      <point x="901" y="188"/>
    </contour>
    <contour>
      <point x="600" y="288" type="curve" smooth="yes"/>
      <point x="843" y="288"/>
      <point x="1024" y="471"/>
      <point x="1024" y="716" type="curve" smooth="yes"/>
      <point x="1024" y="961"/>
      <point x="843" y="1144"/>
      <point x="600" y="1144" type="curve" smooth="yes"/>
      <point x="357" y="1144"/>
      <point x="176" y="961"/>
      <point x="176" y="716" type="curve" smooth="yes"/>
      <point x="176" y="471"/>
      <point x="357" y="288"/>
    </contour>
  </outline>
</glyph>
<glyph name="replacementCharacter" format="2">
  <advance width="1200"/>
  <unicode hex="FFFD"/>
  <outline>
    <contour>
      <point x="600" y="138" type="line"/>
      <point x="1190" y="716" type="line"/>
      <point x="600" y="1294" type="line"/>
      <point x="10" y="716" type="line"/>
    </contour>
    <contour>
      <point x="596" y="324" type="curve" smooth="yes"/>
      <point x="546" y="324"/>
      <point x="507" y="364"/>
      <point x="507" y="413" type="curve" smooth="yes"/>
      <point x="507" y="462"/>
      <point x="546" y="500"/>
      <point x="596" y="500" type="curve" smooth="yes"/>
      <point x="647" y="500"/>
      <point x="685" y="462"/>
      <point x="685" y="413" type="curve" smooth="yes"/>
      <point x="685" y="364"/>
      <point x="646" y="324"/>
    </contour>
    <contour>
      <point x="531" y="564" type="line"/>
      <point x="531" y="670" type="line"/>
      <point x="634" y="731" type="line" smooth="yes"/>
      <point x="693" y="766"/>
      <point x="719" y="798"/>
      <point x="719" y="840" type="curve" smooth="yes"/>
      <point x="719" y="846" type="line" smooth="yes"/>
      <point x="719" y="898"/>
      <point x="681" y="928"/>
      <point x="616" y="928" type="curve" smooth="yes"/>
      <point x="542" y="928"/>
      <point x="492" y="889"/>
      <point x="469" y="818" type="curve"/>
      <point x="357" y="856" type="line"/>
      <point x="396" y="971"/>
      <point x="491" y="1038"/>
      <point x="620" y="1038" type="curve" smooth="yes"/>
      <point x="752" y="1038"/>
      <point x="837" y="959"/>
      <point x="837" y="845" type="curve" smooth="yes"/>
      <point x="837" y="767"/>
      <point x="803" y="713"/>
      <point x="718" y="662" type="curve" smooth="yes"/>
      <point x="649" y="621" type="line"/>
      <point x="649" y="564" type="line"/>
    </contour>
  </outline>
</glyph>
<glyph name="Eng.loclNSM" format="2">
  <advance width="1200"/>
  <outline>
    <contour>
      <point x="725" y="-440" type="curve" smooth="yes"/>
      <point x="940" y="-440"/>
      <point x="1080" y="-292"/>
      <point x="1080" y="-53" type="curve" smooth="yes"/>
      <point x="1080" y="1432" type="line"/>
      <point x="932" y="1432" type="line"/>
      <point x="932" y="608" type="line"/>
      <point x="951" y="276" type="line"/>
      <point x="947" y="276" type="line"/>
      <point x="272" y="1432" type="line"/>
      <point x="120" y="1432" type="line"/>
      <point x="120" y="0" type="line"/>
      <point x="268" y="0" type="line"/>
      <point x="268" y="870" type="line"/>
      <point x="249" y="1202" type="line"/>
      <point x="253" y="1202" type="line"/>
      <point x="956" y="0" type="line"/>
      <point x="940" y="85" type="line"/>
      <point x="940" y="-55" type="line" smooth="yes"/>
      <point x="940" y="-216"/>
      <point x="865" y="-300"/>
      <point x="723" y="-300" type="curve" smooth="yes"/>
      <point x="635" y="-300"/>
      <point x="557" y="-268"/>
      <point x="487" y="-202" type="curve"/>
      <point x="396" y="-311" type="line"/>
      <point x="485" y="-395"/>
      <point x="600" y="-440"/>
    </contour>
  </outline>
</glyph>
<glyph name="brevecomb_acutecomb" format="2">
  <anchor x="0" y="1045" name="_top"/>
  <outline>
    <contour>
      <point x="0" y="1149" type="curve" smooth="yes"/>
      <point x="203" y="1149"/>
      <point x="346" y="1295"/>
      <point x="346" y="1493" type="curve" smooth="yes"/>
      <point x="346" y="1507" type="line"/>
      <point x="212" y="1507" type="line"/>
      <point x="212" y="1491" type="line" smooth="yes"/>
      <point x="212" y="1363"/>
      <point x="140" y="1271"/>
      <point x="0" y="1271" type="curve" smooth="yes"/>
      <point x="-140" y="1271"/>
      <point x="-212" y="1363"/>
      <point x="-212" y="1491" type="curve" smooth="yes"/>
      <point x="-212" y="1507" type="line"/>
      <point x="-346" y="1507" type="line"/>
      <point x="-346" y="1493" type="line" smooth="yes"/>
      <point x="-346" y="1295"/>
      <point x="-203" y="1149"/>
    </contour>
    <contour>
      <point x="-100" y="1492" type="line"/>
      <point x="20" y="1492" type="line"/>
      <point x="252" y="1856" type="line"/>
      <point x="252" y="1866" type="line"/>
      <point x="76" y="1866" type="line"/>
      <point x="-100" y="1502" type="line"/>
    </contour>
  </outline>
</glyph>
<glyph name="brevecomb_gravecomb" format="2">
  <anchor x="0" y="1045" name="_top"/>
  <outline>
    <contour>
      <point x="0" y="1149" type="curve" smooth="yes"/>
      <point x="203" y="1149"/>
      <point x="346" y="1295"/>
      <point x="346" y="1493" type="curve" smooth="yes"/>
      <point x="346" y="1507" type="line"/>
      <point x="212" y="1507" type="line"/>
      <point x="212" y="1491" type="line" smooth="yes"/>
      <point x="212" y="1363"/>
      <point x="140" y="1271"/>
      <point x="0" y="1271" type="curve" smooth="yes"/>
      <point x="-140" y="1271"/>
      <point x="-212" y="1363"/>
      <point x="-212" y="1491" type="curve" smooth="yes"/>
      <point x="-212" y="1507" type="line"/>
      <point x="-346" y="1507" type="line"/>
      <point x="-346" y="1493" type="line" smooth="yes"/>
      <point x="-346" y="1295"/>
      <point x="-203" y="1149"/>
    </contour>
    <contour>
      <point x="-10" y="1492" type="line"/>
      <point x="108" y="1492" type="line"/>
      <point x="108" y="1502" type="line"/>
      <point x="-58" y="1866" type="line"/>
      <point x="-226" y="1866" type="line"/>
      <point x="-226" y="1856" type="line"/>
    </contour>
  </outline>
</glyph>
<glyph name="circumflexcomb_acutecomb" format="2">
  <anchor x="0" y="1045" name="_top"/>
  <outline>
    <contour>
      <point x="-356" y="1163" type="line"/>
      <point x="-190" y="1163" type="line"/>
      <point x="18" y="1424" type="line"/>
      <point x="-18" y="1424" type="line"/>
      <point x="190" y="1163" type="line"/>
      <point x="356" y="1163" type="line"/>
      <point x="356" y="1173" type="line"/>
      <point x="80" y="1501" type="line"/>
      <point x="-80" y="1501" type="line"/>
      <point x="-356" y="1173" type="line"/>
    </contour>
    <contour>
      <point x="195" y="1462" type="line"/>
      <point x="317" y="1462" type="line"/>
      <point x="531" y="1806" type="line"/>
      <point x="531" y="1816" type="line"/>
      <point x="361" y="1816" type="line"/>
      <point x="195" y="1472" type="line"/>
    </contour>
  </outline>
</glyph>
<glyph name="circumflexcomb_gravecomb" format="2">
  <anchor x="0" y="1045" name="_top"/>
  <outline>
    <contour>
      <point x="-356" y="1163" type="line"/>
      <point x="-190" y="1163" type="line"/>
      <point x="18" y="1424" type="line"/>
      <point x="-18" y="1424" type="line"/>
      <point x="190" y="1163" type="line"/>
      <point x="356" y="1163" type="line"/>
      <point x="356" y="1173" type="line"/>
      <point x="80" y="1501" type="line"/>
      <point x="-80" y="1501" type="line"/>
      <point x="-356" y="1173" type="line"/>
    </contour>
    <contour>
      <point x="310" y="1451" type="line"/>
      <point x="432" y="1451" type="line"/>
      <point x="432" y="1461" type="line"/>
      <point x="266" y="1805" type="line"/>
      <point x="96" y="1805" type="line"/>
      <point x="96" y="1795" type="line"/>
    </contour>
  </outline>
</glyph>
<glyph name="circumflexcomb_hookabovecomb" format="2">
  <anchor x="0" y="1045" name="_top"/>
  <outline>
    <contour>
      <point x="-356" y="1163" type="line"/>
      <point x="-190" y="1163" type="line"/>
      <point x="18" y="1424" type="line"/>
      <point x="-18" y="1424" type="line"/>
      <point x="190" y="1163" type="line"/>
      <point x="356" y="1163" type="line"/>
      <point x="356" y="1173" type="line"/>
      <point x="80" y="1501" type="line"/>
      <point x="-80" y="1501" type="line"/>
      <point x="-356" y="1173" type="line"/>
    </contour>
    <contour>
      <point x="234" y="1430" type="line"/>
      <point x="398" y="1445"/>
      <point x="492" y="1528"/>
      <point x="492" y="1660" type="curve" smooth="yes"/>
      <point x="492" y="1788"/>
      <point x="401" y="1871"/>
      <point x="259" y="1871" type="curve" smooth="yes"/>
      <point x="202" y="1871"/>
      <point x="145" y="1861"/>
      <point x="98" y="1841" type="curve"/>
      <point x="131" y="1724" type="line"/>
      <point x="170" y="1738"/>
      <point x="210" y="1745"/>
      <point x="253" y="1745" type="curve" smooth="yes"/>
      <point x="328" y="1745"/>
      <point x="368" y="1713"/>
      <point x="368" y="1655" type="curve" smooth="yes"/>
      <point x="368" y="1593"/>
      <point x="318" y="1558"/>
      <point x="219" y="1550" type="curve"/>
    </contour>
  </outline>
</glyph>
<glyph name="g.ss01" format="2">
  <advance width="1200"/>
  <outline>
    <contour>
      <point x="620" y="-450" type="curve" smooth="yes"/>
      <point x="882" y="-450"/>
      <point x="1037" y="-277"/>
      <point x="1037" y="16" type="curve" smooth="yes"/>
      <point x="1037" y="1045" type="line"/>
      <point x="907" y="1045" type="line"/>
      <point x="907" y="858" type="line"/>
      <point x="902" y="858" type="line"/>
      <point x="839" y="996"/>
      <point x="715" y="1077"/>
      <point x="569" y="1077" type="curve" smooth="yes"/>
      <point x="309" y="1077"/>
      <point x="137" y="874"/>
      <point x="137" y="566" type="curve" smooth="yes"/>
      <point x="137" y="530" type="line" smooth="yes"/>
      <point x="137" y="226"/>
      <point x="309" y="23"/>
      <point x="564" y="23" type="curve" smooth="yes"/>
      <point x="709" y="23"/>
      <point x="824" y="90"/>
      <point x="891" y="207" type="curve"/>
      <point x="896" y="207" type="line"/>
      <point x="896" y="15" type="line" smooth="yes"/>
      <point x="896" y="-199"/>
      <point x="800" y="-314"/>
      <point x="622" y="-314" type="curve" smooth="yes"/>
      <point x="512" y="-314"/>
      <point x="414" y="-274"/>
      <point x="339" y="-196" type="curve"/>
      <point x="240" y="-300" type="line"/>
      <point x="342" y="-398"/>
      <point x="473" y="-450"/>
    </contour>
    <contour>
      <point x="591" y="156" type="curve" smooth="yes"/>
      <point x="399" y="156"/>
      <point x="283" y="300"/>
      <point x="283" y="536" type="curve" smooth="yes"/>
      <point x="283" y="560" type="line" smooth="yes"/>
      <point x="283" y="799"/>
      <point x="399" y="944"/>
      <point x="591" y="944" type="curve" smooth="yes"/>
      <point x="778" y="944"/>
      <point x="902" y="792"/>
      <point x="902" y="560" type="curve" smooth="yes"/>
      <point x="902" y="536" type="line" smooth="yes"/>
      <point x="902" y="306"/>
      <point x="778" y="156"/>
    </contour>
  </outline>
</glyph>
<glyph name="ijacute" format="2">
  <advance width="1200"/>
  <anchor x="346" y="1045" name="_top"/>
  <outline>
    <contour>
      <point x="737" y="-440" type="curve" smooth="yes"/>
      <point x="953" y="-440"/>
      <point x="1094" y="-289"/>
      <point x="1094" y="-45" type="curve" smooth="yes"/>
      <point x="1094" y="1045" type="line"/>
      <point x="954" y="1045" type="line"/>
      <point x="954" y="-47" type="line" smooth="yes"/>
      <point x="954" y="-216"/>
      <point x="878" y="-304"/>
      <point x="735" y="-304" type="curve" smooth="yes"/>
      <point x="651" y="-304"/>
      <point x="571" y="-274"/>
      <point x="489" y="-215" type="curve"/>
      <point x="415" y="-331" type="line"/>
      <point x="518" y="-405"/>
      <point x="623" y="-440"/>
    </contour>
    <contour>
      <point x="46" y="0" type="line"/>
      <point x="734" y="0" type="line"/>
      <point x="734" y="122" type="line"/>
      <point x="46" y="122" type="line"/>
    </contour>
    <contour>
      <point x="326" y="67" type="line"/>
      <point x="464" y="67" type="line"/>
      <point x="464" y="1045" type="line"/>
      <point x="326" y="1045" type="line"/>
    </contour>
    <contour>
      <point x="66" y="923" type="line"/>
      <point x="406" y="923" type="line"/>
      <point x="406" y="1045" type="line"/>
      <point x="66" y="1045" type="line"/>
    </contour>
    <contour>
      <point x="694" y="923" type="line"/>
      <point x="1061" y="923" type="line"/>
      <point x="1061" y="1045" type="line"/>
      <point x="694" y="1045" type="line"/>
    </contour>
    <component base="acutecomb" xOffset="346"/>
    <component base="acutecomb" xOffset="974"/>
  </outline>
</glyph>
<glyph name="uhorn.alt" format="2">
  <advance width="1200"/>
  <outline>
    <contour>
      <point x="506" y="-30" type="curve" smooth="yes"/>
      <point x="640" y="-30"/>
      <point x="738" y="43"/>
      <point x="802" y="158" type="curve"/>
      <point x="808" y="158" type="line"/>
      <point x="808" y="0" type="line"/>
      <point x="938" y="0" type="line"/>
      <point x="938" y="1032" type="line"/>
      <point x="837" y="954" type="line"/>
      <point x="879" y="954" type="line" smooth="yes"/>
      <point x="1054" y="954"/>
      <point x="1166" y="1036"/>
      <point x="1166" y="1171" type="curve" smooth="yes"/>
      <point x="1166" y="1215"/>
      <point x="1159" y="1261"/>
      <point x="1145" y="1303" type="curve"/>
      <point x="978" y="1260" type="line"/>
      <point x="991" y="1220"/>
      <point x="998" y="1180"/>
      <point x="998" y="1143" type="curve" smooth="yes"/>
      <point x="998" y="1080"/>
      <point x="964" y="1045"/>
      <point x="888" y="1045" type="curve" smooth="yes"/>
      <point x="796" y="1045" type="line"/>
      <point x="796" y="433" type="line" smooth="yes"/>
      <point x="796" y="233"/>
      <point x="688" y="102"/>
      <point x="535" y="102" type="curve" smooth="yes"/>
      <point x="397" y="102"/>
      <point x="325" y="187"/>
      <point x="325" y="344" type="curve" smooth="yes"/>
      <point x="325" y="1045" type="line"/>
      <point x="183" y="1045" type="line"/>
      <point x="183" y="324" type="line" smooth="yes"/>
      <point x="183" y="102"/>
      <point x="309" y="-30"/>
    </contour>
  </outline>
</glyph>
